<svg width="612" height="612" viewBox="0 0 612 612" fill="none" xmlns="http://www.w3.org/2000/svg">
<path d="M519.514 161.776C520.154 161.866 520.774 162.06 521.35 162.351C522.704 163.012 523.839 164.05 524.619 165.339C525.398 166.629 525.789 168.116 525.744 169.622C525.707 171.042 525.284 172.426 524.52 173.624C524.115 174.277 523.612 174.864 523.027 175.362C522.424 175.877 521.742 176.29 521.008 176.586C519.467 177.257 517.755 177.428 516.112 177.076C514.455 176.701 512.962 175.804 511.852 174.518C511.336 173.916 510.923 173.234 510.628 172.498C510.311 171.801 510.108 171.057 510.028 170.295C509.851 168.883 510.058 167.45 510.628 166.146C511.226 164.763 512.213 163.583 513.469 162.751C514.725 161.919 516.196 161.469 517.703 161.458C518.349 161.436 518.995 161.522 519.612 161.715C519.612 161.776 518.927 161.58 517.715 161.629C515.99 161.704 514.339 162.355 513.027 163.477C512.126 164.24 511.417 165.205 510.959 166.293C510.439 167.541 510.257 168.905 510.432 170.246C510.522 170.965 510.72 171.667 511.02 172.327C511.322 173.025 511.735 173.67 512.244 174.236C513.286 175.466 514.699 176.325 516.271 176.684C517.834 177.031 519.467 176.872 520.934 176.232C521.634 175.933 522.28 175.519 522.844 175.008C523.403 174.542 523.883 173.988 524.263 173.367C525.004 172.235 525.427 170.925 525.487 169.573C525.544 168.122 525.187 166.684 524.459 165.428C523.731 164.171 522.662 163.147 521.375 162.474C520.2 161.947 519.502 161.837 519.514 161.776Z" fill="#E0E0E0"/>
<path d="M525.732 153.477C525.726 153.388 525.726 153.298 525.732 153.208C525.732 153 525.732 152.731 525.732 152.376C525.732 151.617 525.732 150.528 525.732 149.108L525.793 149.181L518.73 147.639L518.853 147.578L516.992 151.531V151.605H516.907C515.343 151.673 513.795 151.948 512.304 152.425H512.219H512.157L508.938 149.328H509.183L503.063 153.22V153L504.532 157.113V157.211L504.459 157.296C503.403 158.447 502.502 159.731 501.778 161.115V161.213H501.656H497.298L497.482 161.054C496.992 163.269 496.454 165.656 495.915 168.116L495.805 167.884L499.746 169.744H499.856V169.867C499.919 171.425 500.187 172.968 500.652 174.457V174.579L500.554 174.677L497.469 177.774V177.504L501.337 183.624L501.08 183.527L505.193 182.058H505.315L505.425 182.143C506.564 183.204 507.84 184.105 509.22 184.824C509.281 184.91 509.11 184.628 509.342 185.02V189.377L509.171 189.157L516.221 190.748L515.976 190.871C516.601 189.536 517.2 188.227 517.849 186.917L517.91 186.807H518.045C519.599 186.747 521.139 186.48 522.623 186.011H522.745L522.843 186.109L525.94 189.194H525.67L531.79 185.338L531.705 185.571L530.236 181.458V181.348L530.322 181.25C531.384 180.106 532.289 178.826 533.014 177.443V177.345H537.494L537.323 177.492C537.886 175.044 538.412 172.67 538.914 170.43L539.012 170.626L535.071 168.741H534.985V168.643C534.932 167.08 534.668 165.532 534.202 164.04V163.955V163.894C535.328 162.768 536.331 161.752 537.298 160.797V160.968L533.455 154.848H533.577L529.453 156.28C528.586 155.478 527.648 154.757 526.65 154.126L525.891 153.673L525.646 153.514L525.915 153.636L526.686 154.053C527.71 154.664 528.67 155.378 529.551 156.182H529.477L533.577 154.689H533.651V154.763L537.543 160.883L537.604 160.98L537.531 161.054L534.593 164.016V163.869C535.079 165.387 535.354 166.964 535.413 168.557L535.328 168.422L539.281 170.283L539.404 170.344V170.479C538.914 172.706 538.388 175.044 537.837 177.529V177.676H533.296L533.467 177.578C532.727 178.993 531.805 180.306 530.726 181.482V181.274C531.203 182.621 531.705 183.992 532.194 185.387L532.256 185.546L532.109 185.632L525.989 189.512L525.842 189.598L525.719 189.475L522.647 186.427H522.867C521.345 186.911 519.764 187.187 518.167 187.248L518.351 187.125C517.739 188.423 517.127 189.744 516.478 191.066L516.405 191.226H516.233L509.183 189.72H509.012V185.179C509.244 185.571 509.073 185.289 509.134 185.375C507.719 184.64 506.41 183.718 505.242 182.633H505.462L501.35 184.09L501.178 184.151L501.093 184.004L497.225 177.884L497.127 177.737L497.249 177.615L500.334 174.518V174.738C499.855 173.214 499.579 171.634 499.514 170.038L499.636 170.222L495.719 168.288L495.572 168.214V168.055L497.163 161.005V160.846H501.68L501.509 160.944C502.253 159.535 503.179 158.231 504.263 157.064V157.247L502.806 153.122V153L502.929 152.914L509.049 149.059H509.159L509.244 149.144L512.341 152.241H512.194C513.71 151.767 515.283 151.499 516.87 151.446L516.76 151.519C517.445 150.099 518.082 148.765 518.645 147.578V147.492H518.73L525.768 149.12H525.83C525.83 150.528 525.83 151.568 525.83 152.364C525.83 152.718 525.83 153 525.83 153.196C525.802 153.291 525.769 153.385 525.732 153.477Z" fill="#E0E0E0"/>
<path d="M568.498 506.063C568.498 506.063 568.498 505.598 568.498 504.729C568.498 503.86 568.498 502.55 568.498 500.861C568.498 497.47 568.499 492.489 568.437 486.099C568.437 473.333 568.376 454.912 568.339 432.317L568.535 432.513L441.08 432.574L441.349 432.317C441.349 458.413 441.349 483.345 441.349 506.063L441.105 505.818L532.782 505.928L559.11 506.002H566.136H567.935H568.56H566.173H559.208L532.929 506.075L441.129 506.185H440.896V505.953C440.896 483.235 440.896 458.302 440.896 432.207V432.072H441.166H568.621H568.829V432.28C568.829 454.936 568.756 473.382 568.731 486.136C568.731 492.513 568.731 497.47 568.731 500.824C568.731 502.489 568.731 503.774 568.731 504.643C568.731 505.512 568.498 506.063 568.498 506.063Z" fill="#E0E0E0"/>
<path d="M568.548 441.24C568.548 441.387 540.041 441.497 504.9 441.497C469.759 441.497 441.252 441.387 441.252 441.24C441.252 441.093 469.747 440.983 504.9 440.983C540.053 440.983 568.548 441.093 568.548 441.24Z" fill="#E0E0E0"/>
<path d="M491.448 453.406H452.072V492.782H491.448V453.406Z" fill="#F5F5F5"/>
<path d="M559.258 459.894C559.067 459.92 558.874 459.92 558.683 459.894H557.018L550.898 459.967L530.751 460.053L510.604 459.967L504.484 459.894H502.819C502.629 459.92 502.435 459.92 502.244 459.894C502.435 459.872 502.628 459.872 502.819 459.894H504.484L510.604 459.808L530.751 459.734L550.898 459.808L557.018 459.894H558.683C558.874 459.872 559.067 459.872 559.258 459.894Z" fill="#E0E0E0"/>
<path d="M560.518 468.694C560.322 468.716 560.125 468.716 559.93 468.694H558.229L551.986 468.78L531.399 468.853L510.799 468.78L504.556 468.694H502.855C502.66 468.716 502.463 468.716 502.268 468.694C502.46 468.647 502.657 468.627 502.855 468.633H504.556L510.799 468.559L531.399 468.474L551.986 468.559L558.229 468.633H559.93C560.128 468.627 560.326 468.647 560.518 468.694Z" fill="#E0E0E0"/>
<path d="M560.518 477.482C560.323 477.509 560.125 477.509 559.93 477.482H558.229L551.986 477.556L531.399 477.641L510.799 477.556L504.556 477.482H502.855C502.66 477.509 502.463 477.509 502.268 477.482C502.463 477.461 502.66 477.461 502.855 477.482H504.556L510.799 477.397L531.399 477.323L552.023 477.36L558.266 477.446H559.967C560.151 477.439 560.336 477.451 560.518 477.482Z" fill="#E0E0E0"/>
<path d="M560.518 486.283C560.322 486.304 560.125 486.304 559.93 486.283H558.229L551.986 486.369L531.399 486.442L510.799 486.369L504.556 486.283H502.855C502.66 486.304 502.463 486.304 502.268 486.283C502.46 486.236 502.657 486.215 502.855 486.222H504.556L510.799 486.148L531.399 486.063L551.986 486.148L558.229 486.222H559.93C560.128 486.215 560.326 486.236 560.518 486.283Z" fill="#E0E0E0"/>
<path d="M237.384 140.851C258.072 120.163 258.072 86.621 237.384 65.9331C216.696 45.2452 183.155 45.2452 162.467 65.9331C141.779 86.621 141.779 120.163 162.467 140.851C183.155 161.539 216.696 161.539 237.384 140.851Z" fill="#F5F5F5"/>
<path d="M223.993 105.019C223.373 105.111 222.747 105.152 222.12 105.142L216.967 105.24C212.597 105.24 206.514 105.35 199.647 105.35H199.305V101.592C199.305 93.9175 199.305 86.9775 199.403 82.008C199.403 79.56 199.488 77.5771 199.513 76.0471C199.494 75.3184 199.539 74.5893 199.647 73.8684C199.748 74.5901 199.793 75.3185 199.782 76.0471C199.782 77.5771 199.782 79.5845 199.892 82.008C199.892 87.0387 199.99 93.9787 199.99 101.592C199.99 102.816 199.99 103.93 199.99 105.031L199.66 104.689C206.526 104.689 212.61 104.689 216.979 104.799L222.132 104.909C222.755 104.887 223.377 104.924 223.993 105.019Z" fill="#E0E0E0"/>
<path d="M199.793 59.1192C200.129 60.5747 200.245 62.0725 200.136 63.5623C200.244 65.0562 200.129 66.558 199.793 68.0177C199.457 66.558 199.341 65.0562 199.45 63.5623C199.341 62.0725 199.456 60.5747 199.793 59.1192Z" fill="#E0E0E0"/>
<path d="M223.993 66.2551C223.217 67.5142 222.251 68.6456 221.129 69.6089C220.17 70.7276 219.043 71.6898 217.787 72.4608C218.565 71.2069 219.531 70.0799 220.651 69.1193C221.616 68.0032 222.742 67.0378 223.993 66.2551Z" fill="#E0E0E0"/>
<path d="M238.043 81.6775C236.922 82.6388 235.689 83.4608 234.371 84.1255C233.177 84.9802 231.887 85.691 230.527 86.243C231.51 85.1304 232.693 84.2127 234.016 83.538C235.224 82.6614 236.592 82.0294 238.043 81.6775Z" fill="#E0E0E0"/>
<path d="M246.318 104.554C244.298 104.903 242.245 105.018 240.198 104.897C238.152 105.018 236.098 104.903 234.078 104.554C236.099 104.213 238.152 104.098 240.198 104.211C242.245 104.098 244.297 104.213 246.318 104.554Z" fill="#E0E0E0"/>
<path d="M162.168 103.746C160.278 104.084 158.356 104.199 156.439 104.089C154.523 104.198 152.601 104.083 150.711 103.746C152.601 103.409 154.523 103.294 156.439 103.404C158.356 103.293 160.278 103.408 162.168 103.746Z" fill="#E0E0E0"/>
<path d="M168.129 120.784C166.836 122.252 165.383 123.57 163.797 124.713C162.343 126.02 160.745 127.157 159.035 128.104C160.321 126.629 161.775 125.31 163.368 124.175C164.812 122.856 166.411 121.718 168.129 120.784Z" fill="#E0E0E0"/>
<path d="M182.803 133.955C181.948 135.727 180.962 137.433 179.854 139.059C178.936 140.801 177.893 142.474 176.732 144.065C177.291 142.156 178.146 140.347 179.266 138.704C180.191 136.946 181.385 135.344 182.803 133.955Z" fill="#E0E0E0"/>
<path d="M199.793 150.944C199.452 148.923 199.337 146.87 199.45 144.824C199.337 142.777 199.452 140.725 199.793 138.704C200.134 140.725 200.249 142.777 200.136 144.824C200.249 146.87 200.134 148.923 199.793 150.944Z" fill="#E0E0E0"/>
<path d="M225.951 142.853C224.096 142.009 222.403 140.85 220.945 139.426C219.344 138.172 217.966 136.658 216.869 134.946C218.45 136.184 219.962 137.508 221.398 138.912C222.985 140.143 224.505 141.459 225.951 142.853Z" fill="#E0E0E0"/>
<path d="M238.228 129.634C236.742 128.634 235.388 127.45 234.201 126.109C232.86 124.921 231.675 123.568 230.676 122.082C232.158 123.087 233.507 124.275 234.69 125.619C236.034 126.803 237.223 128.152 238.228 129.634Z" fill="#E0E0E0"/>
<path d="M167.565 87.4303C166.239 86.5887 165.043 85.5578 164.015 84.3703C162.828 83.3425 161.797 82.1467 160.955 80.8207C162.281 81.6624 163.477 82.6933 164.505 83.8807C165.692 84.9086 166.723 86.1044 167.565 87.4303Z" fill="#E0E0E0"/>
<path d="M182.719 71.4694C181.416 70.6737 180.241 69.6876 179.23 68.544C178.068 67.5243 177.065 66.3361 176.256 65.0189C177.557 65.8354 178.729 66.8421 179.732 68.0055C180.895 69.0043 181.902 70.1719 182.719 71.4694Z" fill="#E0E0E0"/>
<path d="M77.9688 198.998H168.545C168.545 198.998 160.54 184.432 137.235 186.55C114.983 188.582 113.844 179.389 102.522 178.251C91.2002 177.113 81.7387 185.803 77.9688 198.998Z" fill="#F5F5F5"/>
<path d="M273.932 363.614H347.213C347.213 363.614 340.738 351.827 321.876 353.54C303.858 355.18 302.94 347.738 293.724 346.82C284.507 345.902 276.979 352.928 273.932 363.614Z" fill="#F5F5F5"/>
<path d="M587.814 552.588C587.814 551.738 461.693 551.01 306.012 551.01C150.332 551.01 24.1855 551.496 24.1855 552.588C24.1855 553.68 150.307 554.165 306.012 554.165C461.717 554.165 587.814 553.437 587.814 552.588Z" fill="#A6A6A6"/>
<path d="M557.153 177.639H379.33V296.71H557.153V177.639Z" fill="white"/>
<path d="M557.152 296.698C557.152 296.698 557.152 295.951 557.152 294.531V288.252C557.152 282.744 557.152 274.653 557.078 264.311C557.078 243.613 557.005 213.882 556.944 177.639L557.201 177.884L379.39 177.957L379.709 177.639C379.709 220.051 379.709 260.381 379.709 296.698L379.415 296.404L507.531 296.551L544.129 296.624H553.859H556.381H553.933H544.251L507.715 296.698L379.415 296.844H379.121V296.551C379.121 260.235 379.121 219.904 379.121 177.492V177.162H379.452L557.262 177.235H557.519V177.492C557.519 213.808 557.421 243.588 557.384 264.311C557.384 274.641 557.384 282.671 557.323 288.203C557.323 290.933 557.323 293.026 557.323 294.445C557.323 295.865 557.152 296.698 557.152 296.698Z" fill="#525CEB"/>
<path d="M379.33 188.263C379.33 188.08 419.11 187.945 468.168 187.945C517.226 187.945 557.006 188.08 557.006 188.263C557.006 188.447 517.238 188.582 468.168 188.582C419.098 188.582 379.33 188.496 379.33 188.263Z" fill="#525CEB"/>
<g opacity="0.3">
<path d="M386.343 182.902C386.343 183.186 386.258 183.463 386.1 183.699C385.943 183.935 385.718 184.118 385.456 184.226C385.193 184.335 384.905 184.362 384.627 184.306C384.349 184.25 384.093 184.112 383.894 183.911C383.694 183.709 383.558 183.453 383.505 183.174C383.451 182.896 383.481 182.607 383.591 182.346C383.701 182.084 383.887 181.861 384.124 181.706C384.361 181.55 384.639 181.468 384.923 181.47C385.11 181.47 385.296 181.507 385.469 181.579C385.642 181.652 385.799 181.757 385.931 181.89C386.063 182.024 386.167 182.182 386.238 182.355C386.309 182.529 386.344 182.715 386.343 182.902Z" fill="#525CEB"/>
</g>
<g opacity="0.3">
<path d="M391.227 182.902C391.227 183.186 391.143 183.463 390.985 183.699C390.827 183.935 390.603 184.118 390.341 184.226C390.078 184.335 389.79 184.362 389.511 184.306C389.233 184.25 388.978 184.112 388.778 183.911C388.579 183.709 388.443 183.453 388.389 183.174C388.335 182.896 388.366 182.607 388.476 182.346C388.586 182.084 388.772 181.861 389.009 181.706C389.246 181.55 389.524 181.468 389.808 181.47C389.995 181.47 390.181 181.507 390.354 181.579C390.527 181.652 390.684 181.757 390.816 181.89C390.948 182.024 391.052 182.182 391.123 182.355C391.194 182.529 391.229 182.715 391.227 182.902Z" fill="#525CEB"/>
</g>
<g opacity="0.3">
<path d="M396.036 182.902C396.036 183.186 395.952 183.463 395.794 183.699C395.636 183.935 395.412 184.118 395.149 184.226C394.887 184.335 394.598 184.362 394.32 184.306C394.042 184.25 393.787 184.112 393.587 183.911C393.387 183.709 393.252 183.453 393.198 183.174C393.144 182.896 393.174 182.607 393.284 182.346C393.395 182.084 393.58 181.861 393.817 181.706C394.054 181.55 394.332 181.468 394.616 181.47C394.804 181.47 394.989 181.507 395.162 181.579C395.335 181.652 395.493 181.757 395.625 181.89C395.757 182.024 395.861 182.182 395.931 182.355C396.002 182.529 396.038 182.715 396.036 182.902Z" fill="#525CEB"/>
</g>
<path d="M442.047 200.675H394.617V248.105H442.047V200.675Z" fill="#525CEB"/>
<path d="M532.769 214.078C532.769 214.261 514.263 214.396 491.447 214.396C468.632 214.396 450.125 214.261 450.125 214.078C450.125 213.894 468.632 213.759 491.447 213.759C514.263 213.759 532.769 213.906 532.769 214.078Z" fill="#525CEB"/>
<path d="M532.769 222.903C532.769 223.074 514.263 223.221 491.447 223.221C468.632 223.221 450.125 223.074 450.125 222.903C450.125 222.731 468.632 222.584 491.447 222.584C514.263 222.584 532.769 222.768 532.769 222.903Z" fill="#525CEB"/>
<path d="M532.769 231.715C532.769 231.887 514.263 232.034 491.447 232.034C468.632 232.034 450.125 231.887 450.125 231.715C450.125 231.544 468.632 231.397 491.447 231.397C514.263 231.397 532.769 231.532 532.769 231.715Z" fill="#525CEB"/>
<path d="M498.975 240.528C498.339 240.628 497.696 240.669 497.053 240.651L491.814 240.749C487.396 240.81 481.288 240.846 474.556 240.846C467.824 240.846 461.704 240.846 457.285 240.749L452.047 240.651C451.404 240.669 450.76 240.628 450.125 240.528C450.76 240.429 451.404 240.388 452.047 240.406L457.285 240.308C461.704 240.247 467.812 240.21 474.556 240.21C481.3 240.21 487.396 240.21 491.814 240.308L497.053 240.406C497.696 240.388 498.339 240.429 498.975 240.528Z" fill="#525CEB"/>
<g opacity="0.3">
<path d="M419.869 264.102H397.58V286.392H419.869V264.102Z" fill="#525CEB"/>
</g>
<path d="M460.297 264.102H438.008V286.392H460.297V264.102Z" fill="#525CEB"/>
<path d="M500.727 264.102H478.438V286.392H500.727V264.102Z" fill="#525CEB"/>
<path d="M541.154 264.102H518.865V286.392H541.154V264.102Z" fill="#525CEB"/>
<g opacity="0.3">
<path d="M442.047 200.675H394.617V248.105H442.047V200.675Z" fill="#525CEB"/>
</g>
<g opacity="0.3">
<path d="M460.297 264.102H438.008V286.392H460.297V264.102Z" fill="#525CEB"/>
</g>
<g opacity="0.3">
<path d="M500.727 264.102H478.438V286.392H500.727V264.102Z" fill="#525CEB"/>
</g>
<g opacity="0.3">
<path d="M541.154 264.102H518.865V286.392H541.154V264.102Z" fill="#525CEB"/>
</g>
<path d="M212.523 220.528H54.1133V284.874H212.523V220.528Z" fill="white"/>
<path d="M212.523 284.874C212.523 284.874 212.523 284.482 212.523 283.723C212.523 282.964 212.523 281.85 212.523 280.382C212.523 277.444 212.523 273.136 212.523 267.579C212.523 256.477 212.523 240.406 212.425 220.528L212.596 220.699L54.1982 220.773L54.4552 220.528C54.4552 243.062 54.4552 264.812 54.4552 284.874L54.2104 284.629L167.785 284.739L200.735 284.813H209.561H211.837H209.609H200.846L167.957 284.874L54.2104 284.984H53.8555V220.32H54.1125L212.51 220.406H212.694V220.577C212.694 240.504 212.621 256.599 212.596 267.738C212.596 273.27 212.596 277.53 212.596 280.504C212.596 281.948 212.596 283.05 212.596 283.809C212.596 284.568 212.523 284.874 212.523 284.874Z" fill="#525CEB"/>
<path d="M54.2715 229.206C54.2715 229.072 89.6818 228.949 133.342 228.949C177.002 228.949 212.437 229.072 212.437 229.206C212.437 229.341 177.026 229.451 133.342 229.451C89.6573 229.451 54.2715 229.341 54.2715 229.206Z" fill="#525CEB"/>
<g opacity="0.3">
<path d="M60.9066 225.326C60.9066 225.554 60.8391 225.776 60.7127 225.965C60.5863 226.155 60.4066 226.302 60.1963 226.389C59.9861 226.476 59.7548 226.499 59.5316 226.455C59.3084 226.41 59.1034 226.301 58.9425 226.14C58.7815 225.979 58.672 225.774 58.6276 225.551C58.5832 225.327 58.606 225.096 58.693 224.886C58.7801 224.676 58.9276 224.496 59.1168 224.369C59.306 224.243 59.5285 224.176 59.756 224.176C60.0612 224.176 60.3538 224.297 60.5696 224.513C60.7854 224.728 60.9066 225.021 60.9066 225.326Z" fill="#525CEB"/>
</g>
<g opacity="0.3">
<path d="M64.8714 225.326C64.8714 225.554 64.804 225.776 64.6775 225.965C64.5511 226.155 64.3714 226.302 64.1612 226.389C63.9509 226.476 63.7196 226.499 63.4964 226.455C63.2732 226.41 63.0682 226.301 62.9073 226.14C62.7464 225.979 62.6368 225.774 62.5924 225.551C62.548 225.327 62.5708 225.096 62.6579 224.886C62.745 224.676 62.8924 224.496 63.0817 224.369C63.2709 224.243 63.4933 224.176 63.7209 224.176C64.026 224.176 64.3187 224.297 64.5344 224.513C64.7502 224.728 64.8714 225.021 64.8714 225.326Z" fill="#525CEB"/>
</g>
<g opacity="0.3">
<path d="M68.7269 225.326C68.7269 225.554 68.6594 225.776 68.533 225.965C68.4066 226.155 68.2269 226.302 68.0166 226.389C67.8064 226.476 67.5751 226.499 67.3519 226.455C67.1287 226.41 66.9237 226.301 66.7628 226.14C66.6019 225.979 66.4923 225.774 66.4479 225.551C66.4035 225.327 66.4263 225.096 66.5134 224.886C66.6004 224.676 66.7479 224.496 66.9371 224.369C67.1263 224.243 67.3488 224.176 67.5763 224.176C67.8815 224.176 68.1741 224.297 68.3899 224.513C68.6057 224.728 68.7269 225.021 68.7269 225.326Z" fill="#525CEB"/>
</g>
<path d="M105.838 239.659H67.5762V277.921H105.838V239.659Z" fill="#525CEB"/>
<path d="M201.568 249.916C201.568 250.051 181.874 250.173 157.59 250.173C133.305 250.173 113.611 250.051 113.611 249.916C113.611 249.782 133.305 249.672 157.59 249.672C181.874 249.672 201.568 249.782 201.568 249.916Z" fill="#525CEB"/>
<path d="M201.568 257.713C201.568 257.848 181.874 257.958 157.59 257.958C133.305 257.958 113.611 257.848 113.611 257.713C113.611 257.579 133.305 257.456 157.59 257.456C181.874 257.456 201.568 257.579 201.568 257.713Z" fill="#525CEB"/>
<path d="M170.234 265.51C170.042 265.523 169.85 265.523 169.658 265.51H168.006L161.947 265.584L141.923 265.657L121.91 265.584L115.79 265.51H114.138C113.946 265.522 113.754 265.522 113.562 265.51C113.753 265.482 113.947 265.482 114.138 265.51H115.79L121.91 265.424L141.923 265.351L161.947 265.424L168.006 265.51H169.658C169.849 265.481 170.043 265.481 170.234 265.51Z" fill="#525CEB"/>
<g opacity="0.3">
<path d="M105.838 239.659H67.5762V277.921H105.838V239.659Z" fill="#2833DD"/>
</g>
<path d="M328.925 139.671C326.269 137.896 322.622 138.973 319.966 140.748C317.31 142.523 315.07 144.946 312.071 146.097C306.49 148.263 299.158 145.693 294.825 149.769C292.071 152.388 291.789 156.696 289.684 159.867C286.134 165.203 277.615 167.211 276.893 173.575C276.465 177.247 279.402 180.846 283.013 181.886C284.837 182.314 286.732 182.346 288.569 181.978C290.406 181.611 292.143 180.853 293.662 179.757C297.334 177.309 300.161 173.637 304.299 172.241C308.436 170.846 313.76 172.009 317.102 169.059C320.443 166.109 319.941 160.662 322.34 156.892C323.783 154.998 325.494 153.323 327.42 151.923C329.219 150.368 330.933 148.447 331.239 146.084C331.545 143.722 330.578 139.695 328.95 139.609" fill="#F5F5F5"/>
<path d="M259.953 399.709C260.112 399.624 260.601 400.113 261.066 400.811C261.532 401.509 261.789 402.17 261.642 402.268C261.495 402.366 261.005 401.876 260.528 401.166C260.051 400.456 259.806 399.807 259.953 399.709Z" fill="#263238"/>
<path d="M254.715 388.669C255.375 389.469 255.87 390.393 256.171 391.386C256.655 392.302 256.95 393.305 257.04 394.336C255.884 392.627 255.092 390.698 254.715 388.669Z" fill="#263238"/>
<path d="M251.875 376.772C252.659 378.68 253.039 380.731 252.989 382.794C252.5 381.88 252.204 380.876 252.12 379.844C251.833 378.847 251.75 377.802 251.875 376.772Z" fill="#263238"/>
<path d="M251.446 364.544C251.834 366.569 251.804 368.651 251.36 370.664C251.049 369.676 250.953 368.632 251.079 367.604C250.983 366.569 251.108 365.526 251.446 364.544Z" fill="#263238"/>
<path d="M253.368 352.512C253.467 353.544 253.355 354.585 253.038 355.572C252.916 356.601 252.592 357.595 252.083 358.497C251.985 357.466 252.097 356.424 252.414 355.437C252.538 354.409 252.862 353.415 253.368 352.512Z" fill="#263238"/>
<path d="M257.823 341.068C257.414 343.081 256.58 344.984 255.375 346.649C255.498 345.619 255.826 344.624 256.342 343.724C257.04 342.169 257.664 340.982 257.823 341.068Z" fill="#263238"/>
<path d="M264.567 330.859C264.228 331.841 263.695 332.744 263 333.516C262.449 334.39 261.749 335.16 260.932 335.792C260.76 335.682 261.47 334.495 262.486 333.136C263.502 331.777 264.383 330.749 264.567 330.859Z" fill="#263238"/>
<path d="M272.794 321.802C272.928 321.924 272.084 323.026 270.921 324.25C269.758 325.474 268.705 326.355 268.571 326.245C268.436 326.135 269.281 325.021 270.456 323.797C271.631 322.573 272.671 321.667 272.794 321.802Z" fill="#263238"/>
<path d="M281.409 313.087C281.544 313.209 280.675 314.311 279.488 315.535C278.3 316.759 277.236 317.616 277.113 317.493C276.991 317.371 277.848 316.269 279.035 315.045C280.222 313.821 281.287 312.965 281.409 313.087Z" fill="#263238"/>
<path d="M289.463 303.858C289.075 304.821 288.496 305.695 287.761 306.428C286.684 307.75 285.705 308.717 285.57 308.595C285.969 307.638 286.547 306.766 287.272 306.024C288.337 304.776 289.316 303.76 289.463 303.858Z" fill="#263238"/>
<path d="M295.705 293.356C295.596 294.394 295.243 295.392 294.677 296.269C294.289 297.239 293.681 298.106 292.902 298.803C293.14 297.795 293.554 296.838 294.126 295.975C294.501 295.019 295.035 294.134 295.705 293.356Z" fill="#263238"/>
<path d="M298.656 281.52C298.894 282.537 298.873 283.598 298.595 284.605C298.524 285.65 298.201 286.662 297.652 287.554C297.589 286.528 297.697 285.498 297.97 284.507C298.037 283.481 298.268 282.472 298.656 281.52Z" fill="#263238"/>
<path d="M297.774 269.366C298.317 270.258 298.628 271.272 298.68 272.316C298.931 273.332 298.931 274.395 298.68 275.412C298.294 274.456 298.071 273.443 298.019 272.413C297.773 271.418 297.69 270.388 297.774 269.366Z" fill="#263238"/>
<path d="M292.965 258.166C293.112 258.068 294.005 259.133 294.813 260.614C295.396 261.485 295.758 262.485 295.866 263.527C295.192 262.75 294.646 261.87 294.25 260.92C293.684 260.073 293.25 259.144 292.965 258.166Z" fill="#263238"/>
<path d="M284.433 249.476C285.431 249.789 286.338 250.339 287.077 251.079C288.387 252.181 289.244 253.282 289.121 253.405C288.999 253.527 287.897 252.646 286.673 251.569C285.449 250.492 284.323 249.623 284.433 249.476Z" fill="#263238"/>
<path d="M273.307 244.506C274.349 244.442 275.392 244.636 276.342 245.069C277.364 245.306 278.311 245.794 279.096 246.489C278.072 246.373 277.072 246.097 276.134 245.669C275.132 245.445 274.176 245.051 273.307 244.506Z" fill="#263238"/>
<path d="M261.141 243.955C262.077 243.488 263.118 243.269 264.164 243.319C265.203 243.166 266.263 243.275 267.248 243.637C266.254 243.896 265.227 244.003 264.201 243.955C263.187 244.116 262.154 244.116 261.141 243.955Z" fill="#263238"/>
<path d="M249.856 248.472C249.745 248.325 250.798 247.407 252.304 246.599C253.17 246.005 254.18 245.654 255.229 245.583C254.431 246.229 253.545 246.756 252.597 247.15C251.754 247.725 250.83 248.171 249.856 248.472Z" fill="#263238"/>
<path d="M241.445 257.26C241.712 256.246 242.229 255.316 242.951 254.555C243.991 253.197 245.068 252.303 245.191 252.425C245.313 252.548 244.469 253.649 243.453 254.947C242.437 256.244 241.592 257.346 241.445 257.26Z" fill="#263238"/>
<path d="M237.321 268.692C237.129 267.662 237.209 266.598 237.553 265.608C237.708 264.564 238.129 263.577 238.777 262.744C238.739 263.771 238.545 264.786 238.202 265.755C238.061 266.774 237.764 267.764 237.321 268.692Z" fill="#263238"/>
<path d="M238.778 280.749C238.13 279.916 237.708 278.929 237.554 277.885C237.202 276.896 237.118 275.832 237.309 274.8C237.733 275.734 238.026 276.723 238.178 277.738C238.522 278.707 238.724 279.721 238.778 280.749Z" fill="#263238"/>
<path d="M244.984 291.226C244.85 291.349 243.834 290.394 242.842 288.999C242.15 288.214 241.658 287.273 241.41 286.257C241.569 286.171 242.377 287.273 243.356 288.631C244.037 289.402 244.587 290.278 244.984 291.226Z" fill="#263238"/>
<path d="M253.993 299.488C253.005 299.157 252.105 298.604 251.361 297.873C250.027 296.808 249.109 295.767 249.232 295.633C250.166 296.068 251.019 296.66 251.753 297.383C253.063 298.436 254.103 299.341 253.993 299.488Z" fill="#263238"/>
<path d="M264.604 305.572C262.609 305.039 260.749 304.093 259.145 302.793C260.166 302.969 261.143 303.343 262.021 303.895C262.986 304.273 263.865 304.844 264.604 305.572Z" fill="#263238"/>
<path d="M276.257 309.28C275.218 309.399 274.166 309.273 273.184 308.913C272.151 308.76 271.169 308.361 270.32 307.75C271.352 307.766 272.373 307.952 273.344 308.301C274.365 308.452 275.351 308.784 276.257 309.28Z" fill="#263238"/>
<path d="M288.448 309.905C286.459 310.515 284.34 310.558 282.328 310.027C283.321 309.764 284.352 309.673 285.376 309.758C286.401 309.636 287.439 309.686 288.448 309.905Z" fill="#263238"/>
<path d="M300.222 306.759C298.539 307.981 296.544 308.698 294.469 308.827C295.332 308.264 296.283 307.85 297.284 307.603C298.208 307.156 299.201 306.871 300.222 306.759Z" fill="#263238"/>
<path d="M310.431 300.064C310.554 300.198 309.624 301.288 308.265 302.267C307.504 302.981 306.586 303.505 305.584 303.797C305.486 303.638 306.551 302.793 307.885 301.765C308.638 301.066 309.498 300.492 310.431 300.064Z" fill="#263238"/>
<path d="M318.4 290.81C318.117 291.814 317.601 292.736 316.894 293.503C315.878 294.874 314.862 295.816 314.728 295.706C314.593 295.596 315.389 294.482 316.392 293.124C317.396 291.765 318.241 290.712 318.4 290.81Z" fill="#263238"/>
<path d="M323.699 279.794C323.695 280.839 323.439 281.868 322.952 282.793C322.316 284.384 321.569 285.559 321.41 285.474C321.558 284.456 321.876 283.471 322.353 282.56C322.647 281.571 323.102 280.636 323.699 279.794Z" fill="#263238"/>
<path d="M326.073 267.811C326.339 269.869 326.052 271.96 325.241 273.87C325.207 271.82 325.488 269.776 326.073 267.811Z" fill="#263238"/>
<path d="M325.755 255.583C326.154 256.54 326.346 257.571 326.318 258.607C326.494 259.63 326.464 260.679 326.232 261.691C325.658 259.705 325.495 257.622 325.755 255.571V255.583Z" fill="#263238"/>
<path d="M323.136 243.637C323.704 244.508 324.083 245.488 324.25 246.514C324.619 247.482 324.785 248.515 324.74 249.549C324.178 248.675 323.8 247.697 323.626 246.673C323.257 245.705 323.09 244.672 323.136 243.637Z" fill="#263238"/>
<path d="M318.412 232.327C318.571 232.242 319.306 233.417 320.04 234.947C320.558 235.849 320.883 236.85 320.995 237.884C319.822 236.193 318.949 234.314 318.412 232.327Z" fill="#263238"/>
<path d="M312.389 221.666C312.548 221.568 313.356 222.682 314.212 224.114C314.808 224.955 315.224 225.909 315.436 226.917C314.675 226.228 314.055 225.397 313.613 224.469C313.027 223.623 312.612 222.671 312.389 221.666Z" fill="#263238"/>
<path d="M306.318 211.03C306.477 210.944 307.261 212.082 308.081 213.551C308.672 214.408 309.088 215.373 309.305 216.391C308.555 215.671 307.956 214.81 307.542 213.857C306.944 213.009 306.527 212.047 306.318 211.03Z" fill="#263238"/>
<path d="M301.531 199.769C302.639 201.512 303.369 203.467 303.673 205.51C303.025 204.695 302.558 203.752 302.302 202.743C301.846 201.815 301.583 200.803 301.531 199.769Z" fill="#263238"/>
<path d="M299.452 187.737C299.812 188.704 299.995 189.728 299.991 190.76C300.203 191.766 300.241 192.802 300.101 193.82C299.619 192.894 299.367 191.866 299.366 190.822C299.154 189.801 299.184 188.745 299.452 187.737Z" fill="#263238"/>
<path d="M300.468 175.558C300.565 176.583 300.491 177.618 300.248 178.618C300.204 179.65 299.976 180.666 299.574 181.617C299.337 180.599 299.337 179.539 299.574 178.52C299.635 177.476 299.941 176.461 300.468 175.558Z" fill="#263238"/>
<path d="M304.458 164.016C304.302 165.036 303.971 166.022 303.479 166.929C303.175 167.914 302.708 168.841 302.096 169.671C302.356 167.607 303.172 165.652 304.458 164.016Z" fill="#263238"/>
<path d="M311.275 153.869C311.409 153.991 310.602 155.093 309.573 156.427C308.545 157.761 307.676 158.875 307.529 158.716C307.82 157.711 308.349 156.792 309.072 156.036C310.112 154.689 311.152 153.759 311.275 153.869Z" fill="#263238"/>
<path d="M320.467 145.815C320.565 145.962 319.5 146.831 318.178 147.859C317.428 148.567 316.563 149.142 315.62 149.561C315.498 149.426 316.44 148.337 317.787 147.357C318.547 146.64 319.465 146.112 320.467 145.815Z" fill="#263238"/>
<path d="M331.361 140.283C330.537 140.902 329.614 141.378 328.631 141.69C327.735 142.194 326.757 142.538 325.743 142.706C325.657 142.547 326.82 141.788 328.387 141.115C329.296 140.6 330.317 140.314 331.361 140.283Z" fill="#263238"/>
<path d="M340.272 138.03C340.272 138.202 339.648 138.471 338.828 138.618C338.008 138.765 337.298 138.765 337.261 138.618C337.225 138.471 337.873 138.177 338.706 138.018C339.538 137.859 340.272 137.859 340.272 138.03Z" fill="#263238"/>
<path d="M365.217 101.996C365.217 101.996 379.587 91.7388 399.489 98.3239C399.489 98.3239 401.117 114.799 385.168 127.896" fill="#525CEB"/>
<path d="M319.893 132.425C320.505 133.343 336.111 158.422 336.111 158.422L382.953 129.56C384.886 128.369 386.551 126.789 387.842 124.92C389.133 123.052 390.022 120.935 390.452 118.705C390.883 116.475 390.845 114.18 390.342 111.966C389.839 109.751 388.882 107.665 387.531 105.839C385.02 102.451 381.3 100.161 377.144 99.4451C372.989 98.7292 368.717 99.6429 365.217 101.996L319.893 132.425Z" fill="#525CEB"/>
<path d="M336.109 158.422L335.057 176.072C335.057 176.072 365.412 161.384 357.835 145.032L336.109 158.422Z" fill="#263238"/>
<path d="M341.594 117.859C341.594 117.859 321.007 108.777 304.066 122.094L319.893 132.425L341.594 117.859Z" fill="#263238"/>
<path d="M341.495 132.437L312.205 150.797C312.205 150.797 313.209 153.955 313.992 153.685C314.775 153.416 336.673 140.466 343.809 136.243C344.082 136.081 344.316 135.862 344.496 135.6C344.676 135.339 344.798 135.042 344.852 134.729C344.907 134.417 344.894 134.096 344.813 133.789C344.732 133.482 344.586 133.196 344.384 132.951C344.048 132.528 343.569 132.242 343.037 132.147C342.505 132.052 341.957 132.155 341.495 132.437Z" fill="#263238"/>
<path d="M377.571 120.695C378.756 115.655 375.632 110.607 370.591 109.421C365.551 108.235 360.503 111.36 359.317 116.4C358.131 121.441 361.256 126.488 366.297 127.674C371.337 128.86 376.385 125.736 377.571 120.695Z" fill="#FAFAFA"/>
<path d="M377.812 118.544C377.739 118.544 377.812 117.712 377.396 116.292C376.85 114.282 375.642 112.514 373.969 111.274C372.833 110.421 371.512 109.847 370.114 109.597C368.513 109.312 366.866 109.455 365.34 110.013C363.633 110.617 362.149 111.722 361.08 113.183C359.935 114.736 359.317 116.615 359.317 118.544C359.317 120.474 359.935 122.353 361.08 123.906C362.138 125.359 363.604 126.467 365.291 127.088C366.818 127.645 368.464 127.789 370.065 127.504C371.463 127.254 372.784 126.68 373.92 125.827C375.591 124.584 376.797 122.817 377.347 120.809C377.727 119.389 377.69 118.544 377.764 118.544C377.795 118.747 377.795 118.954 377.764 119.156C377.76 119.734 377.69 120.309 377.555 120.87C377.141 122.652 376.218 124.276 374.9 125.545C373.581 126.814 371.923 127.673 370.126 128.018C368.338 128.368 366.487 128.202 364.789 127.539C363.092 126.875 361.619 125.743 360.542 124.273C359.31 122.617 358.645 120.608 358.645 118.544C358.645 116.481 359.31 114.472 360.542 112.816C361.675 111.268 363.249 110.099 365.058 109.462C366.575 108.913 368.207 108.758 369.8 109.013C371.393 109.268 372.895 109.924 374.165 110.919C375.918 112.242 377.149 114.14 377.641 116.28C377.776 116.841 377.846 117.416 377.849 117.994C377.865 118.178 377.852 118.364 377.812 118.544Z" fill="#263238"/>
<path d="M389.232 124.848C389.109 124.848 388.975 123.024 388.253 120.172C387.825 118.504 387.281 116.868 386.625 115.276C384.994 111.391 382.69 107.823 379.819 104.738C378.643 103.482 377.379 102.313 376.037 101.237C373.724 99.4133 372.12 98.532 372.181 98.4218C372.589 98.5586 372.98 98.7435 373.344 98.9726C373.794 99.2061 374.231 99.4635 374.654 99.7438C375.143 100.074 375.719 100.417 376.306 100.882C377.713 101.917 379.027 103.072 380.235 104.334C383.226 107.419 385.58 111.062 387.163 115.056C387.81 116.68 388.322 118.354 388.693 120.062C388.877 120.784 388.95 121.458 389.048 122.045C389.129 122.543 389.182 123.046 389.207 123.551C389.278 123.98 389.286 124.417 389.232 124.848Z" fill="#263238"/>
<path d="M386.711 126.145C386.588 126.145 386.442 124.297 385.707 121.396C385.271 119.704 384.719 118.043 384.055 116.427C383.22 114.456 382.225 112.556 381.08 110.748C379.914 108.956 378.604 107.261 377.164 105.68C375.97 104.394 374.686 103.196 373.32 102.094C370.982 100.221 369.355 99.3154 369.416 99.2052C369.846 99.346 370.257 99.5392 370.64 99.7805C371.092 100.019 371.529 100.284 371.949 100.576C372.451 100.907 373.039 101.274 373.626 101.8C375.037 102.849 376.363 104.007 377.592 105.264C379.085 106.85 380.433 108.566 381.619 110.393C382.778 112.236 383.773 114.177 384.593 116.194C385.249 117.847 385.769 119.55 386.148 121.286C386.331 122.021 386.405 122.706 386.503 123.294C386.593 123.799 386.65 124.31 386.674 124.824C386.736 125.261 386.748 125.705 386.711 126.145Z" fill="#263238"/>
<path d="M100.173 515.304C99.1204 511.142 101.874 506.981 104.947 503.982C108.019 500.983 111.679 498.303 113.294 494.325C115.901 487.886 112.487 479.502 116.966 474.141C119.561 470.983 124.212 469.955 126.514 466.577C127.586 464.714 128.3 462.668 128.619 460.542C131.12 449.824 136.455 439.974 144.066 432.023C144.54 441.583 142.426 451.093 137.946 459.551C136.146 462.929 133.943 466.222 133.343 470.004C132.34 476.124 135.791 482.476 134.2 488.498C132.425 495.377 124.665 499.955 124.249 507.042C123.906 513.052 129.145 518.34 128.68 524.337C128.358 526.886 127.431 529.32 125.975 531.436C121.177 539.086 114.359 544.362 104.041 544.129L91.3848 544.496L100.173 515.304Z" fill="#525CEB"/>
<g opacity="0.3">
<path d="M100.173 515.304C99.1204 511.142 101.874 506.981 104.947 503.982C108.019 500.983 111.679 498.303 113.294 494.325C115.901 487.886 112.487 479.502 116.966 474.141C119.561 470.983 124.212 469.955 126.514 466.577C127.586 464.714 128.3 462.668 128.619 460.542C131.12 449.824 136.455 439.974 144.066 432.023C144.54 441.583 142.426 451.093 137.946 459.551C136.146 462.929 133.943 466.222 133.343 470.004C132.34 476.124 135.791 482.476 134.2 488.498C132.425 495.377 124.665 499.955 124.249 507.042C123.906 513.052 129.145 518.34 128.68 524.337C128.358 526.886 127.431 529.32 125.975 531.436C121.177 539.086 114.359 544.362 104.041 544.129L91.3848 544.496L100.173 515.304Z" fill="#525CEB"/>
</g>
<path d="M88.8136 544.815C87.6542 544.99 86.4729 544.956 85.3252 544.717C83.9268 544.503 82.5532 544.15 81.2248 543.664C79.3923 543.011 77.6802 542.06 76.1574 540.849C75.244 540.108 74.5325 539.148 74.0888 538.058C73.7137 536.832 73.5199 535.558 73.5136 534.276C73.4946 532.906 73.4047 531.537 73.2443 530.176C73.0055 528.73 72.4857 527.345 71.7143 526.1C70.2455 523.468 67.773 520.983 67.0019 517.409C66.2308 513.835 66.7938 510.065 67.4058 506.332C68.0178 502.599 68.6298 498.401 67.1732 494.435C65.7167 490.469 63.0851 486.883 61.7264 482.415C60.3678 477.948 61.041 473.064 60.7717 468.278C60.7018 465.85 60.1571 463.459 59.1683 461.24C58.1524 459 56.7203 456.883 55.6554 454.52C53.44 449.734 53.0728 444.337 52.4852 439.037C52.2037 436.368 51.91 433.663 51.6284 430.946C51.4545 428.205 50.995 425.489 50.2576 422.843C49.4229 420.171 48.4297 417.551 47.2832 414.997C46.6869 413.674 46.2037 412.302 45.8389 410.897C45.6306 409.452 45.4999 407.998 45.4472 406.539C45.3274 403.616 45.4585 400.688 45.8389 397.788C46.1939 394.875 46.7447 391.974 47.0629 389.048C47.0629 388.877 47.0629 388.706 47.0629 388.547L47.1241 387.971L47.6382 388.228C50.3173 389.606 52.639 391.588 54.4192 394.018C56.1613 396.387 57.5584 398.992 58.5685 401.754C60.6493 407.2 61.3715 412.904 62.4119 418.339C63.4523 423.773 64.762 429.147 67.516 433.675C68.8991 435.94 70.5637 438.008 72.0203 440.212C73.5695 442.363 74.6267 444.828 75.117 447.433C75.8269 452.794 72.8526 457.482 73.4401 462.219C73.7461 464.553 74.5474 466.794 75.7902 468.792C76.9285 470.824 78.2382 472.697 79.5356 474.594C80.8367 476.435 81.9636 478.394 82.9016 480.445C83.7972 482.456 84.3238 484.612 84.4561 486.809C84.7376 491.081 84.1134 495.12 84.4561 498.951C84.7822 502.591 85.822 506.13 87.5161 509.368C89.0216 512.489 90.7108 515.316 92.1184 518.046C92.8209 519.362 93.4542 520.715 94.0156 522.097C94.5212 523.388 94.8864 524.73 95.1049 526.1C95.453 528.494 95.453 530.927 95.1049 533.321C94.7549 536.666 93.4837 539.848 91.4329 542.514C91.1242 542.911 90.7801 543.28 90.4048 543.615C90.1545 543.878 89.8753 544.112 89.5724 544.313L88.8503 544.815C89.7519 544.089 90.5727 543.268 91.2983 542.367C93.2628 539.698 94.4682 536.547 94.7867 533.248C95.0856 530.88 95.0444 528.481 94.6643 526.124C94.4367 524.783 94.0675 523.47 93.5627 522.207C93.0364 520.898 92.3387 519.576 91.6655 518.217C90.2334 515.512 88.532 512.697 86.9898 509.551C85.2477 506.26 84.1706 502.658 83.8196 498.951C83.5014 495.047 84.1134 490.995 83.8196 486.822C83.6895 484.709 83.1838 482.637 82.3264 480.702C81.394 478.691 80.2796 476.769 78.9971 474.961C77.7731 473.076 76.3777 471.191 75.2027 469.123C73.9365 467.031 73.1273 464.695 72.8281 462.268C72.2528 457.213 75.2027 452.476 74.4683 447.519C73.9855 445.032 72.9571 442.682 71.4572 440.64C70.0252 438.474 68.3483 436.405 66.9284 434.092C64.0888 429.428 62.7179 423.969 61.702 418.498C60.686 413.027 59.9272 407.384 57.8831 402.047C56.9004 399.359 55.5404 396.825 53.8439 394.52C52.1387 392.195 49.9182 390.297 47.3567 388.975L47.9442 388.644L47.883 389.159C47.5403 392.121 47.0017 395.022 46.659 397.898C46.2788 400.758 46.1478 403.645 46.2673 406.527C46.3408 407.935 46.4264 409.416 46.6345 410.75C46.9971 412.102 47.4636 413.424 48.0299 414.703C49.19 417.285 50.1955 419.934 51.0409 422.635C51.7767 425.318 52.232 428.071 52.3996 430.848C52.6933 433.565 52.9748 436.27 53.2564 438.939C53.8316 444.263 54.1988 449.575 56.3286 454.19C57.3935 456.491 58.7766 458.608 59.8292 460.934C60.854 463.251 61.4193 465.745 61.4939 468.278C61.7387 473.174 61.0777 477.935 62.3752 482.268C63.6726 486.601 66.4021 490.175 67.773 494.276C69.1439 498.376 68.5931 502.672 67.9688 506.455C67.3446 510.237 66.7448 513.97 67.5037 517.336C68.2626 520.702 70.6004 523.211 72.106 525.904C72.8959 527.2 73.424 528.639 73.6604 530.139C73.8178 531.517 73.8995 532.902 73.9052 534.288C73.8931 535.531 74.0663 536.769 74.4193 537.96C74.8365 539.001 75.5051 539.922 76.3655 540.641C77.8335 541.839 79.4872 542.79 81.2615 543.456C82.568 543.962 83.9208 544.339 85.3007 544.582C86.1496 544.736 87.0088 544.826 87.8711 544.851C88.5076 544.802 88.8136 544.815 88.8136 544.815Z" fill="#263238"/>
<path d="M49.6816 395.536C49.7382 395.656 49.7793 395.784 49.804 395.915C49.8652 396.221 49.9632 396.588 50.0733 397.053C50.3181 398.057 50.5997 399.563 51.0648 401.448C51.5299 403.333 52.6927 405.45 53.6596 408.069C54.6266 410.689 55.6792 413.675 56.6095 417.054C57.5397 420.432 58.3965 424.189 59.2656 428.204C60.005 432.515 61.344 436.701 63.2436 440.64C64.2717 442.696 65.4223 444.789 66.3403 447.066C67.2362 449.406 67.8366 451.848 68.1273 454.337C68.7349 459.487 69.6133 464.603 70.7589 469.661C73.2069 480.041 75.6549 489.931 77.748 498.939C79.841 507.948 81.934 516.002 83.6109 522.819C85.2878 529.637 86.5608 535.059 87.491 538.927L88.5069 543.321C88.6048 543.787 88.6905 544.166 88.7517 544.472C88.7652 544.602 88.7652 544.733 88.7517 544.864C88.6895 544.744 88.6442 544.616 88.6171 544.484L88.2866 543.358C88.0051 542.305 87.6134 540.849 87.0626 539.001L82.9255 522.954C81.2119 516.149 79.1678 508.07 76.9034 499.123C74.639 490.175 72.3501 480.224 69.8409 469.832C68.7255 464.736 67.8838 459.584 67.3195 454.398C67.0532 451.968 66.4773 449.582 65.6059 447.299C64.7246 445.083 63.5863 443.002 62.5581 440.922C60.6667 436.951 59.3361 432.737 58.6046 428.4C57.7601 424.373 56.9644 420.628 56.0587 417.262C55.1529 413.896 54.1982 410.872 53.2313 408.277C52.2643 405.683 51.2239 403.516 50.7833 401.57C50.3426 399.624 50.1223 398.155 49.9387 397.139C49.853 396.674 49.7918 396.282 49.7428 395.976C49.7018 395.833 49.6812 395.685 49.6816 395.536Z" fill="#263238"/>
<path d="M86.5737 544.839C78.3362 539.882 76.0473 524.961 79.548 516.002C83.0486 507.042 89.1319 498.866 90.1111 489.318C90.87 481.974 88.5077 474.41 90.258 467.286C92.6325 457.592 102.143 450.15 102.094 440.163C102.094 434.569 98.9117 429.281 99.1932 423.688C99.5481 416.833 104.836 411.448 108.128 405.401C113.171 396.184 113.563 385.254 115.325 374.899C117.088 364.544 121.103 353.455 130.319 348.412C131.629 357.224 133.918 363.271 133.122 375.193C132.829 379.465 127.81 387.641 127.076 397.017C126.647 402.623 126.329 408.241 125.962 413.859C125.595 419.477 125.203 424.875 123.22 429.979C121.703 433.884 119.267 437.421 118.128 441.46C115.986 449.061 118.704 457.311 116.904 465.01C115.436 471.534 110.882 477.127 109.915 483.737C108.569 493.039 114.53 502.734 111.396 511.595C109.842 515.989 106.207 519.502 105.154 524.043C104.334 527.569 105.154 531.302 104.444 534.839C103.22 540.543 92.3265 544.913 86.5125 544.533" fill="#525CEB"/>
<path d="M127.993 357.078C128.01 357.244 128.01 357.413 127.993 357.579C127.993 357.947 127.883 358.424 127.798 359.024C127.602 360.248 127.381 362.157 126.941 364.568C126.5 366.98 125.19 369.721 124.175 373.002C123.159 376.282 122.033 380.064 121.078 384.312C120.123 388.559 119.303 393.235 118.446 398.277C117.589 403.32 116.647 408.816 114.113 414.067C112.889 416.699 111.665 419.342 110.637 422.145C109.67 425.034 109.065 428.031 108.838 431.068C108.342 437.523 107.496 443.946 106.304 450.31C103.697 463.333 101.225 475.744 98.9601 487.03L92.6443 516.944C90.8205 525.414 89.3395 532.281 88.3113 537.091C87.785 539.429 87.3811 541.265 87.0873 542.562L86.7568 543.982C86.7227 544.146 86.6735 544.305 86.61 544.46C86.5962 544.297 86.5962 544.133 86.61 543.97C86.6834 543.603 86.7691 543.126 86.867 542.526C87.124 541.216 87.479 539.38 87.9441 537.03C88.9111 532.207 90.3064 525.316 92.02 516.822C93.7336 508.327 95.8512 498.131 98.14 486.871L105.484 450.151C106.665 443.81 107.51 437.412 108.018 430.983C108.253 427.881 108.878 424.821 109.878 421.876C110.894 419.012 112.228 416.356 113.403 413.749C115.925 408.583 116.831 403.173 117.749 398.143C118.667 393.112 119.487 388.351 120.503 384.165C121.518 379.979 122.608 376.135 123.722 372.855C124.835 369.575 126.096 366.845 126.598 364.483C127.1 362.12 127.369 360.235 127.614 358.987C127.724 358.387 127.822 357.922 127.883 357.555C127.907 357.393 127.944 357.234 127.993 357.078Z" fill="#263238"/>
<path d="M501.154 352.218H492.623V379.783H501.154V352.218Z" fill="#525CEB"/>
<path d="M516.857 340.872H508.326V379.77H516.857V340.872Z" fill="#525CEB"/>
<path d="M533.566 335.572H525.035V379.77H533.566V335.572Z" fill="#525CEB"/>
<path d="M550.285 329.99H541.754V379.783H550.285V329.99Z" fill="#525CEB"/>
<path d="M205.045 388.008C205.685 388.098 206.305 388.292 206.881 388.583C208.235 389.244 209.37 390.282 210.149 391.571C210.929 392.861 211.32 394.348 211.275 395.854C211.238 397.274 210.815 398.658 210.051 399.856C209.205 401.189 207.982 402.241 206.538 402.88C204.987 403.569 203.256 403.74 201.6 403.367C199.944 402.994 198.452 402.098 197.346 400.811C196.834 400.206 196.421 399.525 196.122 398.791C195.805 398.094 195.602 397.35 195.522 396.588C195.345 395.176 195.553 393.743 196.122 392.439C196.72 391.056 197.707 389.876 198.963 389.044C200.219 388.212 201.69 387.762 203.197 387.751C203.843 387.727 204.489 387.814 205.106 388.008C205.106 388.008 204.421 387.873 203.209 387.922C201.483 387.991 199.83 388.643 198.521 389.771C197.62 390.533 196.911 391.498 196.453 392.586C195.933 393.834 195.751 395.198 195.926 396.539C196.016 397.259 196.214 397.96 196.514 398.62C196.816 399.318 197.229 399.963 197.738 400.53C198.79 401.738 200.2 402.578 201.764 402.928C203.327 403.279 204.961 403.12 206.428 402.476C207.129 402.177 207.774 401.763 208.338 401.252C208.898 400.783 209.381 400.229 209.77 399.612C210.34 398.717 210.717 397.714 210.879 396.666C211.041 395.619 210.983 394.548 210.709 393.524C210.435 392.5 209.951 391.544 209.288 390.716C208.625 389.889 207.797 389.208 206.857 388.718C205.718 388.143 205.033 388.008 205.045 388.008Z" fill="#263238"/>
<path d="M211.263 379.673C211.258 379.583 211.258 379.493 211.263 379.403C211.263 379.195 211.263 378.926 211.263 378.571C211.263 377.812 211.263 376.723 211.263 375.303L211.324 375.376L204.262 373.834L204.384 373.773L202.524 377.726V377.8H202.438C200.874 377.868 199.327 378.144 197.836 378.62H197.75L197.689 378.559L194.58 375.486H194.617L188.497 379.379L188.57 379.171L190.039 383.283V383.381L189.966 383.467C188.91 384.618 188.009 385.902 187.285 387.286V387.384H187.273H182.915L183.099 387.225C182.609 389.44 182.071 391.827 181.532 394.275L181.422 394.042L185.363 395.915L185.473 395.976V396.099C185.543 397.656 185.81 399.199 186.269 400.689V400.811L186.171 400.909L183.087 404.006V403.736L186.955 409.856L186.697 409.758L190.81 408.29H190.945L191.043 408.375C192.181 409.435 193.457 410.337 194.837 411.056C194.898 411.142 194.727 410.86 194.959 411.252V415.609L194.788 415.389L201.838 416.98L201.594 417.102C202.218 415.768 202.818 414.459 203.466 413.149L203.527 413.039H203.662C205.217 412.98 206.757 412.712 208.24 412.243H208.375L208.46 412.329L211.557 415.426H211.288L217.408 411.57L217.322 411.803C216.82 410.407 216.343 409.036 215.853 407.69V407.58L215.939 407.482C217.001 406.338 217.907 405.058 218.632 403.675V403.577H223.111L222.94 403.724C223.503 401.276 224.029 398.902 224.531 396.662L224.629 396.858L220.688 394.973H220.602V394.875C220.549 393.312 220.286 391.764 219.819 390.272V390.187V390.126L222.916 387.029V387.2L219.072 381.08H219.195L215.07 382.512C214.204 381.71 213.265 380.988 212.267 380.358L211.508 379.905L211.263 379.746L211.532 379.868L212.304 380.285C213.325 380.895 214.284 381.604 215.168 382.402H215.094L219.195 380.909H219.268V380.982L223.16 387.102V387.188L223.087 387.274L220.015 390.37V390.223C220.5 391.742 220.776 393.319 220.835 394.911L220.749 394.777L224.703 396.637L224.825 396.698V396.833C224.335 399.061 223.809 401.399 223.258 403.883V404.03H218.742L218.913 403.932C218.176 405.346 217.254 406.655 216.171 407.825V407.629C216.649 408.975 217.151 410.346 217.64 411.741L217.701 411.9L217.555 411.986L211.434 415.854L211.288 415.952L211.165 415.83L208.069 412.745H208.289C206.766 413.228 205.185 413.504 203.589 413.565L203.772 413.443C203.16 414.74 202.548 416.062 201.9 417.384L201.826 417.543H201.655L194.604 415.964H194.433V411.264C194.666 411.656 194.433 411.374 194.556 411.46C193.141 410.725 191.832 409.803 190.663 408.718H190.884L186.771 410.175L186.6 410.236L186.514 410.089L182.646 403.969L182.548 403.822L182.671 403.7L185.755 400.603V400.823C185.276 399.299 185 397.719 184.935 396.123L185.057 396.294L181.153 394.483L181.006 394.41V394.25L182.597 387.2V387.041H187.273L187.114 387.139C187.849 385.728 188.772 384.423 189.855 383.259V383.442L188.399 379.318V379.183L188.521 379.11L194.641 375.254L194.751 375.193L194.849 375.278L197.934 378.375H197.787C199.303 377.901 200.875 377.633 202.463 377.58L202.352 377.653L204.25 373.712V373.626H204.335L211.373 375.254H211.434C211.434 376.661 211.434 377.702 211.434 378.498C211.434 378.852 211.434 379.134 211.434 379.33C211.386 379.448 211.328 379.563 211.263 379.673Z" fill="#263238"/>
<path fill-rule="evenodd" clip-rule="evenodd" d="M197.946 324.764C199.492 325.571 200.924 326.58 202.206 327.763L206.759 326.147L211.031 332.891L207.628 336.318C208.15 337.986 208.45 339.714 208.522 341.459L212.879 343.528L211.129 351.288H206.306C205.494 352.834 204.482 354.266 203.295 355.548L204.923 360.101L198.167 364.373L194.739 361.08C193.076 361.601 191.352 361.901 189.611 361.974L187.542 366.331L179.745 364.581V359.758C178.198 358.949 176.765 357.936 175.486 356.747L170.932 358.375L166.648 351.618L170.063 348.204C169.544 346.536 169.243 344.808 169.17 343.063L164.812 340.994L166.551 333.197H171.361C172.165 331.65 173.174 330.217 174.36 328.938L172.756 324.36L179.5 320.076L182.928 323.491C184.595 322.969 186.323 322.669 188.069 322.597L190.137 318.24L197.934 319.99V324.813L197.946 324.764ZM191.067 333.944C189.414 333.574 187.688 333.702 186.108 334.313C184.528 334.923 183.164 335.989 182.189 337.374C181.214 338.759 180.672 340.403 180.631 342.096C180.589 343.79 181.051 345.458 181.957 346.889C182.864 348.32 184.174 349.45 185.722 350.137C187.271 350.824 188.988 351.036 190.658 350.748C192.327 350.459 193.873 349.681 195.101 348.514C196.328 347.347 197.182 345.841 197.555 344.189C197.802 343.09 197.831 341.953 197.639 340.844C197.446 339.734 197.037 338.673 196.435 337.721C195.832 336.77 195.048 335.946 194.127 335.298C193.206 334.65 192.166 334.19 191.067 333.944Z" fill="#FF725E"/>
<g opacity="0.8">
<path fill-rule="evenodd" clip-rule="evenodd" d="M197.946 324.764C199.492 325.571 200.924 326.58 202.206 327.763L206.759 326.147L211.031 332.891L207.628 336.318C208.15 337.986 208.45 339.714 208.522 341.459L212.879 343.528L211.129 351.288H206.306C205.494 352.834 204.482 354.266 203.295 355.548L204.923 360.101L198.166 364.373L194.739 361.08C193.076 361.601 191.352 361.901 189.611 361.974L187.542 366.331L179.745 364.581V359.758C178.198 358.949 176.765 357.936 175.486 356.747L170.932 358.375L166.648 351.618L170.063 348.204C169.544 346.536 169.243 344.808 169.17 343.063L164.812 340.994L166.551 333.197H171.361C172.165 331.65 173.174 330.217 174.36 328.938L172.756 324.36L179.5 320.076L182.928 323.491C184.595 322.969 186.323 322.669 188.068 322.597L190.137 318.24L197.934 319.99V324.813L197.946 324.764ZM191.067 333.944C189.414 333.574 187.688 333.702 186.108 334.313C184.528 334.923 183.164 335.989 182.189 337.374C181.214 338.759 180.672 340.403 180.631 342.096C180.589 343.79 181.051 345.458 181.957 346.889C182.864 348.32 184.174 349.45 185.722 350.137C187.271 350.824 188.988 351.036 190.658 350.748C192.327 350.459 193.873 349.681 195.101 348.514C196.328 347.347 197.182 345.841 197.554 344.189C197.802 343.09 197.831 341.953 197.639 340.844C197.446 339.734 197.037 338.673 196.435 337.721C195.832 336.77 195.048 335.946 194.127 335.298C193.206 334.65 192.166 334.19 191.067 333.944Z" fill="#525CEB"/>
</g>
<path fill-rule="evenodd" clip-rule="evenodd" d="M169.745 370.713C170.634 371.182 171.457 371.766 172.193 372.451L174.849 371.508L177.297 375.438L175.314 377.433C175.62 378.401 175.797 379.405 175.841 380.419L178.374 381.643L177.481 386.172H174.666C174.195 387.06 173.611 387.883 172.927 388.62L173.87 391.264L169.929 393.712L167.946 391.729C166.973 392.03 165.965 392.202 164.947 392.243L163.723 394.789L159.182 393.761V390.958C158.291 390.487 157.468 389.898 156.734 389.208L154.078 390.15L151.63 386.221L153.613 384.226C153.311 383.257 153.138 382.253 153.099 381.239L150.553 380.015L151.569 375.474H154.225C154.701 374.587 155.29 373.764 155.975 373.026L155.033 370.382L158.962 367.934L160.957 369.93C161.923 369.618 162.928 369.441 163.943 369.403L165.167 366.87L169.708 367.885V370.701L169.745 370.713ZM165.743 376.05C164.779 375.831 163.772 375.904 162.849 376.258C161.927 376.612 161.13 377.232 160.56 378.039C159.99 378.847 159.672 379.805 159.647 380.793C159.622 381.781 159.89 382.754 160.418 383.589C160.947 384.425 161.711 385.084 162.614 385.485C163.518 385.886 164.52 386.009 165.493 385.84C166.467 385.671 167.369 385.217 168.084 384.535C168.8 383.854 169.297 382.975 169.513 382.01C169.801 380.72 169.566 379.368 168.86 378.251C168.153 377.133 167.032 376.342 165.743 376.05Z" fill="#FF725E"/>
<g opacity="0.4">
<path fill-rule="evenodd" clip-rule="evenodd" d="M169.745 370.713C170.634 371.182 171.457 371.766 172.193 372.451L174.849 371.508L177.297 375.438L175.314 377.433C175.62 378.401 175.797 379.405 175.841 380.419L178.374 381.643L177.481 386.172H174.666C174.195 387.06 173.611 387.883 172.927 388.62L173.87 391.264L169.929 393.712L167.946 391.729C166.973 392.03 165.965 392.202 164.947 392.243L163.723 394.789L159.182 393.761V390.958C158.291 390.487 157.468 389.898 156.734 389.208L154.078 390.15L151.63 386.221L153.613 384.226C153.311 383.257 153.138 382.253 153.099 381.239L150.553 380.015L151.569 375.474H154.225C154.701 374.587 155.29 373.764 155.975 373.026L155.033 370.382L158.962 367.934L160.957 369.93C161.923 369.618 162.928 369.441 163.943 369.403L165.167 366.87L169.708 367.885V370.701L169.745 370.713ZM165.743 376.05C164.779 375.831 163.772 375.904 162.849 376.258C161.927 376.612 161.13 377.232 160.56 378.039C159.99 378.847 159.672 379.805 159.647 380.793C159.622 381.781 159.89 382.754 160.418 383.589C160.947 384.425 161.711 385.084 162.614 385.485C163.518 385.886 164.52 386.009 165.493 385.84C166.467 385.671 167.369 385.217 168.084 384.535C168.8 383.854 169.297 382.975 169.513 382.01C169.801 380.72 169.566 379.368 168.86 378.251C168.153 377.133 167.032 376.342 165.743 376.05Z" fill="#525CEB"/>
</g>
<path d="M440.064 325.67C442.631 324.931 444.877 323.355 446.446 321.193C448.014 319.03 448.813 316.405 448.718 313.736C448.571 311.288 447.677 309.011 447.775 306.612C447.934 302.94 450.407 299.745 452.267 296.514C454.128 293.283 455.364 289.035 453.197 286C451.802 284.029 449.317 283.148 447.616 281.434C445.915 279.721 445.168 277.432 444.262 275.241C443.356 273.05 442.218 270.786 440.162 269.623C438.105 268.46 434.96 268.962 434.115 271.177" fill="#263238"/>
<path d="M417.837 265.29C421.509 262.952 422.39 257.554 420.395 253.699C418.4 249.843 414.189 247.493 409.905 246.795C406.788 246.321 403.603 246.591 400.61 247.582C397.618 248.573 394.901 250.258 392.684 252.499C390.321 254.947 388.4 258.117 385.193 259.231C382.378 260.222 379.256 259.329 376.294 259.721C374.319 260.078 372.449 260.872 370.82 262.045C369.192 263.219 367.846 264.741 366.882 266.502C364.985 270.043 363.847 273.941 363.54 277.946C363.112 281.618 362.818 285.596 360.297 288.252C357.775 290.908 353.92 291.398 350.86 293.246C348.041 295.104 346.061 297.99 345.343 301.288C344.625 304.586 345.225 308.035 347.016 310.896C348.24 312.659 349.978 314.286 350.113 316.428C350.248 318.57 348.987 320.1 348.387 322.01C348.078 323.217 348.032 324.476 348.251 325.703C348.47 326.929 348.949 328.094 349.657 329.12C350.365 330.145 351.284 331.007 352.353 331.647C353.422 332.287 354.615 332.691 355.853 332.83C358.399 332.977 361.117 331.986 363.405 333.124C365.694 334.262 366.514 336.992 367.959 339.072C369.45 341.079 371.584 342.514 374.005 343.138C376.427 343.762 378.988 343.536 381.264 342.5C383.136 341.582 384.936 340.052 386.98 340.211C389.024 340.37 390.652 342.12 392.733 342.512C395.413 343.026 397.947 341.055 399.538 338.84C401.129 336.624 402.243 334.017 404.275 332.206C406.943 329.831 410.689 329.256 414.067 328.093C417.8 326.803 421.213 324.726 424.074 322.004C426.936 319.281 429.18 315.976 430.655 312.312C432.13 308.648 432.801 304.71 432.623 300.764C432.445 296.818 431.422 292.956 429.624 289.439" fill="#263238"/>
<path d="M425.951 270.1C427.41 270.259 428.757 270.96 429.724 272.063C430.692 273.167 431.211 274.593 431.177 276.061L427.677 355.217C427.53 364.568 413.87 369.819 403.858 369.587C393.748 369.354 393.429 364.397 393.295 355.499C393.087 340.639 393.111 335.058 393.099 335.143C393.087 335.229 380.333 333.001 377.725 316.331C376.428 308.032 376.869 294.445 377.591 283.344C378.252 273.344 384.935 261.091 394.861 262.169L425.951 270.1Z" fill="#FFBE9D"/>
<path d="M381.201 294.127C381.197 294.684 381.41 295.221 381.793 295.625C382.176 296.029 382.701 296.268 383.258 296.294C383.529 296.315 383.802 296.282 384.061 296.197C384.319 296.112 384.558 295.976 384.764 295.797C384.969 295.617 385.136 295.399 385.256 295.155C385.376 294.91 385.445 294.644 385.461 294.372C385.471 293.815 385.262 293.277 384.88 292.872C384.498 292.467 383.973 292.228 383.417 292.206C383.145 292.184 382.871 292.217 382.611 292.302C382.352 292.387 382.112 292.523 381.906 292.702C381.7 292.881 381.531 293.099 381.41 293.344C381.289 293.588 381.218 293.855 381.201 294.127Z" fill="#263238"/>
<path d="M380.467 290.419C380.736 290.7 382.352 289.501 384.653 289.513C386.954 289.525 388.631 290.676 388.888 290.394C389.145 290.113 388.741 289.77 388.007 289.231C387.013 288.538 385.828 288.171 384.616 288.179C383.421 288.169 382.255 288.542 381.287 289.243C380.577 289.782 380.332 290.296 380.467 290.419Z" fill="#263238"/>
<path d="M404.127 294.127C404.123 294.684 404.335 295.221 404.719 295.625C405.102 296.029 405.627 296.268 406.183 296.294C406.455 296.315 406.728 296.283 406.986 296.197C407.245 296.112 407.484 295.976 407.689 295.797C407.895 295.618 408.062 295.399 408.182 295.155C408.301 294.91 408.371 294.644 408.386 294.372C408.396 293.813 408.186 293.273 407.802 292.868C407.417 292.463 406.889 292.225 406.33 292.206C406.059 292.184 405.786 292.217 405.527 292.302C405.268 292.387 405.029 292.524 404.824 292.703C404.619 292.882 404.451 293.1 404.332 293.345C404.212 293.589 404.142 293.855 404.127 294.127Z" fill="#263238"/>
<path d="M403.074 290.896C403.344 291.177 404.959 289.978 407.261 289.99C409.562 290.002 411.239 291.214 411.496 290.871C411.753 290.529 411.349 290.247 410.614 289.709C409.62 289.016 408.436 288.648 407.224 288.656C406.03 288.652 404.865 289.025 403.895 289.721C403.185 290.272 402.94 290.773 403.074 290.896Z" fill="#263238"/>
<path d="M394.69 307.934C393.499 307.555 392.266 307.325 391.018 307.248C390.431 307.187 389.868 307.065 389.794 306.673C389.746 306.066 389.887 305.459 390.198 304.935C390.749 303.515 391.336 302.022 391.936 300.468C394.384 294.103 396.122 288.864 395.865 288.778C395.608 288.693 393.417 293.76 390.969 300.113C390.394 301.692 389.831 303.185 389.305 304.617C388.928 305.322 388.815 306.138 388.986 306.918C389.071 307.126 389.202 307.311 389.37 307.459C389.537 307.608 389.737 307.716 389.953 307.775C390.28 307.866 390.618 307.915 390.957 307.922C392.196 308.08 393.45 308.084 394.69 307.934Z" fill="#263238"/>
<path d="M393.039 335.143C400.886 335.284 408.619 333.246 415.377 329.256C415.377 329.256 409.722 341.006 393.039 339.403V335.143Z" fill="#EB996E"/>
<path d="M395.646 313.479C396.082 312.937 396.646 312.514 397.287 312.247C397.929 311.979 398.627 311.877 399.318 311.949C399.826 311.993 400.319 312.141 400.767 312.383C401.216 312.625 401.61 312.956 401.925 313.356C402.227 313.742 402.405 314.21 402.438 314.699C402.471 315.188 402.356 315.675 402.109 316.098C401.736 316.508 401.25 316.799 400.712 316.934C400.174 317.069 399.608 317.042 399.085 316.857C398.002 316.464 397.005 315.865 396.148 315.094C395.895 314.903 395.676 314.672 395.499 314.409C395.414 314.282 395.369 314.133 395.369 313.98C395.369 313.828 395.414 313.679 395.499 313.552" fill="#FF725E"/>
<path d="M401.471 309.537C401.092 309.537 401.079 311.985 398.937 313.785C396.795 315.584 394.139 315.266 394.127 315.621C394.127 315.768 394.714 316.098 395.841 316.135C397.303 316.164 398.727 315.669 399.855 314.739C400.945 313.856 401.648 312.583 401.814 311.19C401.899 310.149 401.618 309.525 401.471 309.537Z" fill="#263238"/>
<path d="M402.047 286.869C402.268 287.493 404.569 287.199 407.261 287.53C409.954 287.86 412.157 288.607 412.5 288.044C412.672 287.775 412.292 287.187 411.411 286.575C410.236 285.836 408.909 285.371 407.529 285.216C406.149 285.062 404.752 285.221 403.443 285.682C402.451 286.073 401.949 286.575 402.047 286.869Z" fill="#263238"/>
<path d="M381.325 283.76C381.729 284.286 383.32 283.76 385.217 283.76C387.115 283.76 388.743 284.115 389.11 283.576C389.281 283.307 389.024 282.781 388.314 282.291C387.371 281.692 386.27 281.39 385.153 281.422C384.036 281.455 382.954 281.822 382.047 282.475C381.374 282.964 381.154 283.503 381.325 283.76Z" fill="#263238"/>
<path d="M414.936 264.678C416.834 263.349 418.996 262.442 421.274 262.02C423.552 261.598 425.895 261.669 428.143 262.23C432.586 263.454 436.271 267.517 436.43 272.022C436.528 274.959 435.206 278.142 436.564 280.749C437.923 283.356 440.861 284.298 443.039 286.134C444.709 287.594 445.842 289.57 446.259 291.748C446.676 293.926 446.353 296.181 445.34 298.154C443.517 301.496 439.698 303.944 439.38 307.714C439.074 311.263 442.06 314.262 442.795 317.75C443.59 321.594 441.46 325.572 438.413 328.13C435.365 330.688 431.497 332.096 427.727 333.442C424.789 334.507 421.607 335.584 418.584 334.886C416.798 334.407 415.194 333.41 413.974 332.02C412.754 330.63 411.973 328.91 411.729 327.077C411.548 325.25 411.763 323.404 412.361 321.668C412.959 319.931 413.925 318.344 415.193 317.016C417.335 314.654 420.346 312.659 420.86 309.537C421.656 304.641 415.879 300.712 416.234 295.816C416.417 293.295 418.204 291.202 419.685 289.121C421.166 287.04 422.464 284.433 421.546 282.071C420.322 278.986 416.319 278.178 413.871 275.951C412.862 275.001 412.137 273.79 411.776 272.452C411.415 271.114 411.433 269.703 411.827 268.374C412.273 267.047 413.071 265.867 414.136 264.959C415.201 264.051 416.493 263.451 417.874 263.221" fill="#263238"/>
<path d="M416.735 260.92C416.743 262.596 416.381 264.254 415.675 265.774C414.969 267.295 413.937 268.641 412.651 269.716C411.365 270.791 409.858 271.57 408.236 271.996C406.615 272.422 404.92 272.485 403.271 272.181C400.725 271.716 397.935 270.431 395.731 271.789C393.528 273.148 393.283 276.685 391.264 278.485C388.326 281.043 383.663 278.644 379.93 279.709C377.053 280.565 375.254 283.307 373.332 285.633C371.41 287.958 368.559 290.149 365.67 289.305C365.757 286.707 366.143 284.127 366.82 281.618C367.51 279.094 369.049 276.885 371.178 275.363C372.438 274.708 373.663 273.989 374.85 273.209C377.298 271.287 377.8 267.921 379.269 265.229C380.24 263.495 381.611 262.018 383.267 260.92C384.923 259.821 386.816 259.133 388.791 258.913C392.072 258.582 395.45 259.561 398.583 258.754C400.946 258.166 403.014 256.636 405.401 256.171C410.064 255.29 414.397 258.619 417.776 261.961" fill="#263238"/>
<path d="M447.176 300.761C447.483 300.17 447.615 299.503 447.556 298.84C447.405 297.949 447.011 297.117 446.417 296.437C445.823 295.756 445.052 295.254 444.19 294.984C442.993 294.561 441.765 294.229 440.518 293.993C439.029 293.722 437.614 293.138 436.369 292.279C435.703 291.741 435.165 291.063 434.792 290.293C434.42 289.522 434.223 288.679 434.214 287.824C434.196 286.074 434.282 284.325 434.471 282.585C434.52 281.726 434.475 280.864 434.337 280.015C434.176 279.221 433.842 278.473 433.357 277.824C432.261 276.696 430.87 275.898 429.343 275.522C427.91 275.112 426.536 274.52 425.255 273.76C424.139 273.092 423.125 272.267 422.244 271.312C420.955 269.942 419.956 268.327 419.306 266.563C419.12 266.091 418.977 265.603 418.878 265.106C418.804 264.763 418.78 264.592 418.804 264.58C418.829 264.568 419.024 265.278 419.526 266.477C420.428 268.568 421.799 270.423 423.533 271.898C425.267 273.373 427.318 274.429 429.526 274.984C431.167 275.372 432.662 276.221 433.835 277.432C434.387 278.154 434.772 278.99 434.961 279.88C435.108 280.778 435.157 281.689 435.108 282.597C434.925 284.317 434.835 286.045 434.839 287.775C434.837 288.546 435.006 289.309 435.334 290.007C435.662 290.705 436.141 291.322 436.736 291.814C437.909 292.629 439.238 293.192 440.64 293.466C441.891 293.731 443.119 294.096 444.312 294.556C445.339 294.948 446.238 295.617 446.907 296.49C447.393 297.161 447.685 297.952 447.752 298.778C447.784 299.302 447.679 299.826 447.446 300.296C447.336 300.639 447.189 300.774 447.176 300.761Z" fill="#455A64"/>
<path d="M349.023 311.165L348.742 311.031C348.489 310.872 348.276 310.659 348.117 310.406C347.886 309.875 347.796 309.292 347.856 308.715C347.916 308.138 348.124 307.587 348.46 307.114C348.876 306.381 349.497 305.785 350.247 305.4C351.116 304.969 352.011 304.592 352.928 304.274C353.956 303.931 354.908 303.39 355.731 302.683C356.565 301.811 357.123 300.713 357.334 299.525C357.603 298.301 357.689 296.906 357.922 295.486C358.096 293.962 358.666 292.511 359.574 291.275C361.508 288.729 364.69 287.371 367.065 284.972C368.25 283.71 369.14 282.201 369.672 280.553C370.238 278.814 370.647 277.028 370.896 275.216C371.41 271.544 371.936 267.456 374.397 264.103C375.596 262.417 377.397 261.256 379.427 260.859C381.355 260.584 383.316 260.629 385.229 260.994C387.014 261.34 388.838 261.447 390.651 261.312C392.358 261.114 393.933 260.3 395.082 259.023C397.359 256.575 398.656 253.27 401.459 251.581C402.708 250.819 404.1 250.323 405.549 250.123C406.998 249.923 408.472 250.023 409.88 250.418C412.214 251.082 414.197 252.627 415.413 254.727C416.331 256.286 416.829 258.058 416.857 259.867C416.89 261 416.712 262.129 416.331 263.197C416.204 263.573 416.035 263.934 415.829 264.274C415.829 264.274 415.976 263.894 416.208 263.16C416.528 262.097 416.665 260.988 416.612 259.88C416.542 258.124 416.029 256.414 415.119 254.91C413.922 252.918 412.001 251.466 409.758 250.859C408.409 250.503 407.001 250.428 405.622 250.638C404.243 250.849 402.922 251.341 401.741 252.083C400.458 252.964 399.364 254.092 398.522 255.4C397.609 256.824 396.603 258.185 395.511 259.476C394.896 260.146 394.177 260.712 393.381 261.153C392.55 261.577 391.651 261.855 390.725 261.973C388.859 262.116 386.982 262.013 385.143 261.667C383.299 261.312 381.41 261.262 379.55 261.52C377.677 261.899 376.019 262.975 374.911 264.531C373.795 266.109 372.986 267.881 372.524 269.757C372.083 271.606 371.743 273.477 371.508 275.363C371.265 277.208 370.856 279.027 370.284 280.798C369.722 282.529 368.777 284.11 367.518 285.425C365.009 287.873 361.863 289.243 360.027 291.655C359.167 292.815 358.619 294.176 358.436 295.608C358.203 297.004 358.105 298.375 357.799 299.672C357.568 300.944 356.953 302.114 356.037 303.026C355.171 303.758 354.168 304.312 353.087 304.654C352.176 304.953 351.285 305.309 350.418 305.719C349.711 306.069 349.117 306.612 348.705 307.285C348.38 307.727 348.17 308.242 348.093 308.784C348.016 309.327 348.075 309.88 348.264 310.394C348.466 310.697 348.724 310.959 349.023 311.165Z" fill="#455A64"/>
<path d="M308.129 425.952L337.689 423.247C337.689 423.247 355.877 375.327 378.301 363.712L392.83 389.085L361.728 447.507H301.018L308.129 425.952Z" fill="#FF725E"/>
<path opacity="0.3" d="M308.129 425.952L337.689 423.247C337.689 423.247 355.877 375.327 378.301 363.712L392.83 389.085L361.728 447.507H301.018L308.129 425.952Z" fill="#525CEB"/>
<path d="M319.807 439.416C321.267 436.118 323.125 433.01 325.339 430.163C323.859 433.451 322.003 436.556 319.807 439.416Z" fill="#FAFAFA"/>
<path d="M340.75 438.841C338.184 436.329 335.924 433.523 334.018 430.481C335.384 431.649 336.598 432.986 337.628 434.459C338.835 435.794 339.882 437.264 340.75 438.841Z" fill="#FAFAFA"/>
<path d="M344.385 427.861C343.96 425.292 343.96 422.671 344.385 420.101C344.809 422.671 344.809 425.292 344.385 427.861Z" fill="#FAFAFA"/>
<path d="M333.98 444.985C332.948 444.697 331.986 444.202 331.153 443.529C329.684 442.562 328.582 441.668 328.705 441.521C329.733 441.823 330.694 442.322 331.532 442.99C332.927 443.945 334.078 444.838 333.98 444.985Z" fill="#FAFAFA"/>
<path d="M350.956 400.946C350.472 402.794 349.786 404.583 348.912 406.282C348.23 408.067 347.351 409.771 346.293 411.362C346.763 409.511 347.445 407.72 348.325 406.025C349.014 404.241 349.897 402.538 350.956 400.946Z" fill="#FAFAFA"/>
<path d="M362.939 381.533C363.037 381.668 361.984 382.647 360.577 383.724C359.776 384.456 358.841 385.025 357.823 385.401C357.725 385.254 358.777 384.275 360.185 383.21C360.982 382.473 361.918 381.903 362.939 381.533Z" fill="#FAFAFA"/>
<path d="M407.15 443.663L422.401 382.084C423.677 376.917 426.872 372.431 431.338 369.536C435.803 366.642 441.204 365.557 446.441 366.502C451.821 367.476 456.608 370.512 459.781 374.963C462.955 379.415 464.264 384.93 463.43 390.334L454.103 450.518C452.989 456.677 449.984 462.337 445.504 466.709C441.025 471.081 435.294 473.948 429.109 474.912L416.991 476.797L407.15 443.663Z" fill="#525CEB"/>
<path d="M455.204 362.524C453.613 361.222 451.753 360.29 449.758 359.795C447.599 359.293 445.355 359.293 443.197 359.795C440.569 360.458 438.128 361.714 436.061 363.467C431.593 367.212 429.17 372.035 427.493 375.486C426.673 377.212 426.049 378.632 425.608 379.611C425.405 380.135 425.155 380.639 424.861 381.117C424.981 380.571 425.153 380.038 425.375 379.526C425.755 378.51 426.306 377.078 427.077 375.291C427.981 373.217 429.028 371.209 430.21 369.281C431.679 366.911 433.508 364.784 435.633 362.977C437.767 361.143 440.304 359.839 443.038 359.171C445.281 358.66 447.613 358.689 449.843 359.256C451.341 359.641 452.747 360.319 453.98 361.251C454.309 361.507 454.616 361.789 454.898 362.096C455.119 362.402 455.217 362.512 455.204 362.524Z" fill="#263238"/>
<path d="M368.828 376.38C368.707 376.587 368.563 376.78 368.399 376.955L367.102 378.522C365.964 379.881 364.36 381.864 362.524 384.422C357.644 391.041 354.106 398.55 352.108 406.527C349.991 415.915 349.88 424.704 349.525 431.007C349.366 434.165 349.219 436.723 349.085 438.486C349.011 439.318 348.95 439.991 348.901 440.518C348.886 440.756 348.853 440.994 348.803 441.228C348.769 440.992 348.769 440.753 348.803 440.518C348.803 439.979 348.803 439.294 348.864 438.474C348.864 436.625 348.999 434.092 349.097 430.995C349.342 424.704 349.366 415.878 351.545 406.392C353.545 398.337 357.173 390.777 362.206 384.177C364.103 381.631 365.768 379.673 366.955 378.363C367.543 377.702 368.032 377.212 368.35 376.882C368.494 376.701 368.654 376.533 368.828 376.38Z" fill="#263238"/>
<path d="M466.526 376.245C464.85 365.229 458.779 362.598 452.475 359.171C450.419 358.045 440.492 355.499 432.622 353.577C431.863 348.816 430.516 340.272 430.174 338.473C429.757 335.939 390.075 342.267 389.574 343.222C389.243 343.846 388.35 353.736 387.75 360.358L378.252 363.675L365.901 379.44L359.451 388.596C355.65 393.877 352.934 399.859 351.458 406.197C350.072 413.215 349.477 420.367 349.683 427.519L347.762 467.911L430.847 491.387L437.212 450.432L458.632 421.276C460.455 409.489 468.583 389.783 466.526 376.245Z" fill="#525CEB"/>
<path d="M395.671 361.594C395.38 360.684 395.196 359.743 395.12 358.791C394.863 357.053 394.544 354.642 394.238 351.973C394.092 350.652 393.957 349.391 393.822 348.204C393.696 347.172 393.623 346.134 393.602 345.095C393.591 344.361 393.8 343.64 394.202 343.026C394.52 342.61 394.789 342.5 394.814 342.524C394.838 342.549 394.63 342.744 394.41 343.161C394.133 343.766 394.011 344.43 394.055 345.095C394.055 345.951 394.275 346.98 394.41 348.142C394.544 349.305 394.704 350.59 394.875 351.9C395.181 354.568 395.426 356.992 395.573 358.742C395.715 359.686 395.747 360.643 395.671 361.594Z" fill="#263238"/>
<path d="M406.257 359.097C405.844 358.286 405.548 357.421 405.376 356.527C404.268 352.288 403.855 347.898 404.152 343.528C404.16 342.621 404.292 341.719 404.543 340.847C404.739 340.847 404.384 344.972 404.862 350.015C405.339 355.058 406.453 359.048 406.257 359.097Z" fill="#263238"/>
<path d="M425.952 356.184C426.203 353.141 426.125 350.079 425.72 347.053C425.095 344.062 424.134 341.15 422.855 338.375C423.471 339.056 423.963 339.839 424.312 340.688C426.263 344.668 427.036 349.123 426.54 353.528C426.483 354.438 426.284 355.334 425.952 356.184Z" fill="#263238"/>
<path d="M369.648 392.243C371.54 388.638 373.999 385.361 376.931 382.537C374.663 385.889 372.233 389.128 369.648 392.243Z" fill="#FAFAFA"/>
<path d="M388.29 376.992C385.915 374.606 383.859 371.924 382.17 369.012C383.415 370.14 384.521 371.414 385.462 372.806C386.577 374.077 387.527 375.484 388.29 376.992Z" fill="#FAFAFA"/>
<path d="M407.823 367.469C406.628 368.888 405.323 370.21 403.919 371.423C402.666 372.792 401.311 374.064 399.867 375.229C400.852 373.638 402.069 372.202 403.478 370.97C404.74 369.588 406.205 368.408 407.823 367.469Z" fill="#FAFAFA"/>
<path d="M402.341 355.817C401.202 355.219 400.171 354.432 399.294 353.491C398.271 352.701 397.382 351.75 396.662 350.676C397.8 351.288 398.833 352.077 399.722 353.014C400.742 353.799 401.627 354.746 402.341 355.817Z" fill="#FAFAFA"/>
<path d="M419.464 346.686C418.158 347.297 416.767 347.71 415.339 347.91C413.959 348.309 412.528 348.506 411.092 348.497C412.396 347.891 413.781 347.479 415.204 347.273C416.589 346.874 418.023 346.676 419.464 346.686Z" fill="#FAFAFA"/>
<path d="M422.892 373.797C422.499 372.409 422.317 370.968 422.353 369.526C422.178 368.096 422.211 366.649 422.451 365.229C422.844 366.618 423.026 368.058 422.99 369.501C423.165 370.93 423.132 372.378 422.892 373.797Z" fill="#FAFAFA"/>
<path d="M416.65 386.784C415.743 385.242 415.02 383.599 414.495 381.888C413.785 380.227 413.268 378.49 412.953 376.71C414.563 379.932 415.795 383.329 416.625 386.833L416.65 386.784Z" fill="#FAFAFA"/>
<path d="M399.685 396.025C398.71 394.393 397.922 392.656 397.335 390.848C396.541 389.114 395.95 387.294 395.572 385.425C396.54 387.066 397.328 388.806 397.922 390.615C398.706 392.348 399.297 394.163 399.685 396.025Z" fill="#FAFAFA"/>
<path d="M383.723 406.441C382.593 403.081 381.878 399.596 381.594 396.062C382.253 397.711 382.713 399.433 382.965 401.19C383.423 402.905 383.678 404.667 383.723 406.441Z" fill="#FAFAFA"/>
<path d="M364.751 406.858C362.864 403.934 361.335 400.794 360.197 397.506C362.084 400.43 363.612 403.57 364.751 406.858Z" fill="#FAFAFA"/>
<path d="M364.348 419.024C362.794 420.13 361.128 421.069 359.378 421.827C357.714 422.769 355.948 423.52 354.115 424.067C355.667 422.948 357.338 422.004 359.097 421.252C360.759 420.316 362.52 419.569 364.348 419.024Z" fill="#FAFAFA"/>
<path d="M364.581 438.265C363.749 436.888 363.165 435.376 362.855 433.798C362.34 432.282 362.095 430.686 362.133 429.085C362.72 430.558 363.167 432.082 363.467 433.639C363.982 435.143 364.355 436.692 364.581 438.265Z" fill="#FAFAFA"/>
<path d="M360.652 451.778C359.201 450.86 357.862 449.775 356.661 448.547C355.323 447.479 354.126 446.245 353.1 444.875C354.551 445.794 355.89 446.878 357.09 448.106C358.428 449.174 359.625 450.408 360.652 451.778Z" fill="#FAFAFA"/>
<path d="M385.645 442.549C385.645 442.733 382.879 443.541 379.598 444.997C376.318 446.454 373.821 447.947 373.711 447.788C375.382 446.35 377.286 445.208 379.341 444.41C381.319 443.43 383.452 442.8 385.645 442.549Z" fill="#FAFAFA"/>
<path d="M378.338 435.854C377.549 434.543 376.944 433.131 376.538 431.656C375.927 430.256 375.515 428.776 375.314 427.262C376.1 428.568 376.701 429.977 377.101 431.448C377.721 432.85 378.137 434.334 378.338 435.854Z" fill="#FAFAFA"/>
<path d="M393.16 419.306C392.236 421.378 391.117 423.358 389.818 425.218C388.698 427.211 387.395 429.096 385.926 430.848C387.978 426.806 390.399 422.962 393.16 419.367V419.306Z" fill="#FAFAFA"/>
<path d="M409.098 420.885C407.486 419.232 406.113 417.362 405.022 415.328C403.747 413.405 402.742 411.317 402.035 409.122C402.207 409.049 403.626 411.766 405.573 415.009C407.519 418.253 409.245 420.787 409.098 420.885Z" fill="#FAFAFA"/>
<path d="M418.608 405.144C417.124 405.726 415.539 406.008 413.945 405.976C412.365 406.161 410.764 406.037 409.232 405.609C410.786 405.402 412.353 405.312 413.92 405.34C415.476 405.162 417.043 405.097 418.608 405.144Z" fill="#FAFAFA"/>
<path d="M441.289 387.261C437.405 389.597 433.306 391.556 429.049 393.112C432.94 390.789 437.037 388.831 441.289 387.261Z" fill="#FAFAFA"/>
<path d="M442.793 375.878C444.041 372.436 445.684 369.15 447.689 366.086C447.171 367.842 446.448 369.531 445.535 371.117C444.805 372.803 443.885 374.4 442.793 375.878Z" fill="#FAFAFA"/>
<path d="M457.188 384.813C456.435 383.004 455.813 381.143 455.328 379.244C454.646 377.41 454.097 375.528 453.688 373.614C455.517 377.107 456.703 380.9 457.188 384.813Z" fill="#FAFAFA"/>
<path d="M459.452 396.662C457.77 397.581 455.958 398.241 454.079 398.62C452.25 399.202 450.342 399.495 448.424 399.489C450.22 398.87 452.056 398.375 453.92 398.008C455.731 397.434 457.58 396.984 459.452 396.662Z" fill="#FAFAFA"/>
<path d="M434.777 411.129C434.593 411.129 435.119 408.118 435.266 404.41C435.413 400.701 435.168 397.69 435.352 397.665C435.917 399.874 436.104 402.163 435.903 404.434C435.914 406.714 435.533 408.979 434.777 411.129Z" fill="#FAFAFA"/>
<path d="M429.856 426.025C426.564 423.416 423.854 420.148 421.9 416.429C422.06 416.331 423.675 418.596 425.878 421.24C427.288 422.764 428.616 424.361 429.856 426.025Z" fill="#FAFAFA"/>
<path d="M454.594 422.88C452.991 423.888 451.279 424.709 449.49 425.328C447.781 426.15 445.987 426.782 444.141 427.213C447.454 425.376 450.959 423.911 454.594 422.843V422.88Z" fill="#FAFAFA"/>
<path d="M445.731 450.909C445.36 446.427 445.405 441.92 445.865 437.445C446.253 441.927 446.208 446.436 445.731 450.909Z" fill="#FAFAFA"/>
<path d="M426.748 449.294C427.057 444.61 428.206 440.021 430.139 435.744C430.31 435.805 429.38 438.78 428.449 442.513C427.519 446.246 426.932 449.33 426.748 449.294Z" fill="#FAFAFA"/>
<path d="M427.616 456.65C427.616 456.834 424.581 457.127 420.86 457.752C417.139 458.376 414.152 459.061 414.104 458.878C416.227 457.986 418.464 457.393 420.75 457.115C423.005 456.636 425.317 456.479 427.616 456.65Z" fill="#FAFAFA"/>
<path d="M406.613 451.938C407.677 450.398 408.909 448.982 410.285 447.715C411.498 446.305 412.87 445.04 414.373 443.945C413.309 445.484 412.078 446.9 410.701 448.168C409.485 449.574 408.114 450.839 406.613 451.938Z" fill="#FAFAFA"/>
<path d="M393.014 465.12C392.366 463.56 391.814 461.962 391.362 460.334C390.698 458.778 390.126 457.184 389.648 455.561C391.59 458.396 392.751 461.693 393.014 465.12Z" fill="#FAFAFA"/>
<path d="M414.936 472.733C410.762 471.349 406.732 469.562 402.904 467.397C405.015 467.992 407.064 468.787 409.024 469.771C411.082 470.574 413.061 471.565 414.936 472.733Z" fill="#FAFAFA"/>
<path d="M376.697 470.518C376.869 468.978 377.256 467.47 377.848 466.038C378.235 464.541 378.824 463.104 379.598 461.766C379.425 463.306 379.038 464.814 378.448 466.246C378.051 467.74 377.463 469.176 376.697 470.518Z" fill="#FAFAFA"/>
<path d="M401.913 474.79C401.913 474.973 398.4 474.41 394.067 474.19C389.734 473.97 386.221 474.19 386.209 473.945C388.809 473.44 391.467 473.308 394.104 473.553C396.753 473.588 399.383 474.004 401.913 474.79Z" fill="#FAFAFA"/>
<path d="M407.15 438.694C407.127 438.531 407.127 438.367 407.15 438.204C407.147 437.735 407.218 437.269 407.358 436.821C407.549 436.066 408.022 435.413 408.68 434.997C409.583 434.475 410.645 434.301 411.667 434.508L411.422 434.655C412.756 429.954 414.898 423.1 417.04 415.413C419.048 408.216 420.406 401.594 421.349 396.784C421.814 394.471 422.181 392.549 422.475 391.092C422.585 390.393 422.745 389.701 422.952 389.024C422.937 389.735 422.859 390.444 422.72 391.141C422.524 392.5 422.205 394.458 421.789 396.87C420.729 403.174 419.348 409.421 417.652 415.585C415.51 423.284 413.295 430.114 411.826 434.777L411.765 434.961H411.581C410.657 434.75 409.687 434.88 408.852 435.328C408.244 435.69 407.788 436.26 407.566 436.931C407.162 438.008 407.236 438.706 407.15 438.694Z" fill="#263238"/>
<path d="M434.592 455.72C434.494 455.72 433.736 454.104 432.144 451.632C428.065 445.177 422.312 439.948 415.498 436.503C412.891 435.193 411.165 434.593 411.202 434.483C411.62 434.55 412.031 434.66 412.426 434.814C413.533 435.173 414.617 435.602 415.669 436.099C422.707 439.37 428.581 444.707 432.512 451.399C433.103 452.401 433.63 453.439 434.091 454.508C434.322 454.882 434.491 455.291 434.592 455.72Z" fill="#263238"/>
<g opacity="0.2">
<path d="M411.936 433.59C416.332 433.7 420.683 434.488 424.837 435.928C429.232 437.568 433.295 440.726 434.911 445.132C435.173 445.629 435.29 446.19 435.249 446.751C435.208 447.311 435.01 447.849 434.678 448.302C434.365 448.572 433.983 448.75 433.575 448.817C433.167 448.884 432.748 448.837 432.365 448.682C431.599 448.361 430.907 447.886 430.333 447.286C427.64 444.838 424.837 442.586 422.059 440.187C419.28 437.788 415.217 435.291 411.594 434.716" fill="black"/>
</g>
<path d="M403.112 425.781C402.737 426.077 402.326 426.324 401.888 426.515C400.683 427.105 399.424 427.581 398.13 427.935C393.824 429.164 389.267 429.218 384.932 428.092C380.598 426.967 376.643 424.702 373.479 421.533C372.523 420.589 371.655 419.561 370.884 418.461C370.578 418.088 370.323 417.677 370.125 417.237C370.223 417.164 371.349 418.951 373.797 421.252C376.976 424.255 380.862 426.406 385.095 427.506C389.327 428.606 393.769 428.619 398.008 427.543C401.202 426.686 403.051 425.658 403.112 425.781Z" fill="#263238"/>
<g opacity="0.2">
<path d="M370.725 418.143C372.793 422.623 375.204 427.139 379.121 430.15C381.287 432.021 383.992 433.153 386.845 433.382C390.933 433.455 394.446 430.664 397.567 428.021C387.457 429.612 376.073 425.022 370.725 418.143Z" fill="black"/>
</g>
<path d="M415.988 358.167C415.792 358.167 415.988 353.956 415.523 348.828C415.058 343.699 414.018 339.623 414.201 339.574C414.605 340.408 414.889 341.293 415.046 342.206C415.574 344.363 415.943 346.556 416.147 348.767C416.366 350.979 416.423 353.204 416.319 355.425C416.329 356.35 416.218 357.271 415.988 358.167Z" fill="#263238"/>
<path d="M270.797 521.963C270.797 521.963 257.492 524.839 245.62 523.052C234.481 521.387 209.548 523.113 209.561 537.74C209.561 554.105 242.817 550.066 255.779 547.471C268.741 544.876 281.666 542.575 281.666 542.575L270.797 521.963Z" fill="#525CEB"/>
<path d="M240.932 542.93C240.201 541.094 239.663 539.186 239.329 537.238C238.796 535.332 238.468 533.375 238.35 531.4C239.064 533.238 239.585 535.145 239.904 537.091C240.453 538.995 240.798 540.953 240.932 542.93Z" fill="#263238"/>
<path d="M245.473 543.15C244.511 539.295 243.969 535.347 243.857 531.375C244.441 533.275 244.819 535.233 244.983 537.214C245.353 539.17 245.517 541.16 245.473 543.15Z" fill="#263238"/>
<path d="M249.854 541.436C249.341 539.778 249.028 538.065 248.923 536.332C248.606 534.626 248.503 532.887 248.617 531.155C249.44 534.52 249.851 537.972 249.841 541.436H249.854Z" fill="#263238"/>
<path d="M256.733 539.784C255.882 538.45 255.304 536.961 255.032 535.402C254.554 533.889 254.388 532.294 254.542 530.714C255.01 532.197 255.378 533.71 255.644 535.243C256.114 536.729 256.478 538.246 256.733 539.784Z" fill="#263238"/>
<path d="M258.263 533.737C258.832 533.606 259.419 533.565 260.001 533.615C261.594 533.67 263.169 533.98 264.664 534.533C265.181 534.717 265.668 534.977 266.109 535.304C266.368 535.494 266.582 535.737 266.736 536.019C266.891 536.3 266.982 536.612 267.002 536.932C266.975 537.285 266.871 537.628 266.698 537.937C266.526 538.246 266.288 538.514 266.002 538.722C265.716 538.93 265.388 539.074 265.041 539.143C264.693 539.212 264.335 539.206 263.991 539.123C262.585 538.738 261.359 537.872 260.527 536.675C259.145 534.893 258.354 532.724 258.264 530.47C258.175 528.217 258.79 525.991 260.025 524.105C260.276 523.801 260.62 523.59 261.005 523.505C261.205 523.479 261.408 523.498 261.601 523.559C261.793 523.62 261.97 523.723 262.118 523.86C262.59 524.344 262.884 524.974 262.951 525.647C263.102 526.753 263.044 527.879 262.779 528.964C262.413 530.538 261.636 531.987 260.527 533.162C260.235 533.483 259.911 533.774 259.56 534.031C259.444 534.13 259.311 534.209 259.169 534.264C259.169 534.264 259.634 533.848 260.393 533.04C261.384 531.843 262.069 530.423 262.388 528.903C262.609 527.868 262.638 526.802 262.473 525.757C262.411 525.215 262.175 524.709 261.8 524.313C261.705 524.233 261.594 524.175 261.474 524.143C261.354 524.111 261.229 524.105 261.107 524.126C260.985 524.147 260.868 524.194 260.766 524.265C260.664 524.335 260.578 524.426 260.515 524.533C259.397 526.321 258.851 528.407 258.95 530.513C259.048 532.618 259.786 534.644 261.066 536.32C261.797 537.416 262.888 538.221 264.15 538.597C264.412 538.665 264.685 538.677 264.951 538.632C265.217 538.587 265.471 538.486 265.696 538.335C265.92 538.185 266.11 537.989 266.253 537.759C266.396 537.53 266.489 537.273 266.525 537.006C266.505 536.764 266.433 536.53 266.315 536.319C266.197 536.108 266.035 535.925 265.839 535.782C265.452 535.472 265.018 535.224 264.554 535.047C263.108 534.473 261.587 534.111 260.038 533.97C258.826 533.762 258.263 533.786 258.263 533.737Z" fill="#263238"/>
<path d="M280.357 540.408L280.027 540.518L279.023 540.763L275.167 541.644C271.814 542.379 266.942 543.419 260.896 544.582C254.849 545.745 247.627 547.03 239.525 548.168C235.282 548.865 230.975 549.083 226.685 548.817C224.401 548.664 222.144 548.232 219.965 547.532C218.845 547.152 217.764 546.668 216.734 546.088C215.658 545.512 214.699 544.739 213.906 543.811C213.463 543.403 213.076 542.938 212.756 542.428C212.131 541.354 211.748 540.158 211.631 538.922C211.515 537.685 211.669 536.438 212.082 535.267C212.883 533.007 214.373 531.055 216.342 529.686C218.195 528.381 220.239 527.369 222.401 526.687C223.466 526.381 224.494 526.014 225.546 525.781C226.599 525.549 227.639 525.292 228.68 525.145C237.015 523.835 244.592 524.496 250.908 524.496C254.066 524.557 256.918 524.496 259.415 524.325C261.549 524.171 263.674 523.901 265.779 523.517L268.08 523.027L269.733 522.562L270.749 522.281C270.863 522.24 270.983 522.216 271.104 522.207C271.104 522.207 270.994 522.269 270.773 522.342L269.77 522.685L268.129 523.211L265.841 523.762C263.726 524.189 261.588 524.495 259.439 524.68C256.93 524.863 254.066 524.986 250.871 524.949C244.555 525.01 236.979 524.386 228.753 525.72C227.725 525.867 226.709 526.149 225.669 526.369C224.628 526.589 223.625 526.969 222.572 527.262C220.47 527.928 218.484 528.915 216.685 530.188C214.825 531.483 213.416 533.328 212.658 535.463C212.278 536.546 212.137 537.698 212.242 538.841C212.348 539.984 212.698 541.09 213.27 542.085C213.562 542.537 213.912 542.948 214.31 543.309C215.058 544.156 215.949 544.864 216.942 545.402C217.932 545.964 218.973 546.431 220.051 546.798C222.183 547.473 224.391 547.884 226.624 548.022C230.872 548.289 235.137 548.088 239.341 547.422C247.419 546.357 254.653 545.072 260.7 543.97C266.746 542.869 271.63 541.889 275.008 541.228L278.888 540.469L279.892 540.286C280.054 540.293 280.213 540.334 280.357 540.408Z" fill="#263238"/>
<path d="M231.715 548.352C231.515 547.228 231.405 546.09 231.385 544.949C231.238 542.856 230.993 539.955 230.565 536.785C230.136 533.615 229.622 530.751 229.206 528.682C228.921 527.578 228.728 526.452 228.631 525.316C229.086 526.366 229.427 527.462 229.647 528.584C230.315 531.259 230.834 533.968 231.201 536.7C231.561 539.428 231.774 542.174 231.838 544.925C231.915 546.068 231.874 547.217 231.715 548.352Z" fill="#263238"/>
<path opacity="0.4" d="M266.697 522.672L275.131 543.786L281.667 542.575L269.145 521.963L266.697 522.672Z" fill="black"/>
<path d="M376.564 464.802C375.205 465.242 288.093 440.836 252.866 430.934C248.292 429.645 243.497 429.347 238.798 430.058C234.1 430.769 229.607 432.474 225.62 435.059L225.192 435.328C219.408 439.068 214.921 444.502 212.342 450.888C209.764 457.274 209.22 464.301 210.785 471.007C211.79 475.326 213.643 479.403 216.236 483C218.828 486.597 222.11 489.643 225.889 491.962C249.145 506.197 298.289 536.137 299.794 535.549C301.765 534.79 363.161 533.199 363.161 533.199L289.293 480.065L324.434 502.782L376.564 464.838V464.802Z" fill="#263238"/>
<path d="M303.833 438.29L322.352 428.706L340.516 440.089L408.497 442.317L418.289 475.365L319.879 452.55C319.879 452.55 301.972 454.141 300.626 450.102C299.28 446.062 303.833 438.29 303.833 438.29Z" fill="#FFBE9D"/>
<path d="M359.536 491.338L350.381 521.424L351.519 530.592C359.581 538.715 370.328 543.62 381.747 544.388C393.166 545.157 404.474 541.735 413.551 534.766C419.179 530.445 423.732 524.883 426.857 518.514C429.982 512.145 431.595 505.14 431.569 498.046L431.434 466.638L359.536 491.338Z" fill="#263238"/>
<path d="M305.021 491.534C304.923 491.669 294.299 483.921 281.3 474.227C268.301 464.532 257.836 456.552 257.946 456.417C258.056 456.283 268.668 464.018 281.68 473.712C294.691 483.407 305.131 491.387 305.021 491.534Z" fill="#455A64"/>
<path d="M321.104 434.704C318.159 435.982 315.133 437.065 312.046 437.947C309.021 439.019 305.93 439.898 302.793 440.579C305.737 439.298 308.763 438.214 311.851 437.335C314.876 436.261 317.966 435.382 321.104 434.704Z" fill="#EB996E"/>
<path d="M322.486 440.346C321.453 440.64 320.397 440.841 319.328 440.946C317.382 441.264 314.701 441.742 311.764 442.415C308.826 443.088 306.207 443.835 304.31 444.398C303.302 444.762 302.266 445.045 301.213 445.242C302.146 444.722 303.136 444.312 304.163 444.018C306.604 443.152 309.093 442.424 311.617 441.84C314.14 441.262 316.694 440.828 319.267 440.542C320.33 440.363 321.409 440.298 322.486 440.346Z" fill="#EB996E"/>
<path d="M320.933 445.536C317.587 446.532 314.181 447.317 310.737 447.886C307.331 448.67 303.882 449.246 300.406 449.612C303.758 448.622 307.167 447.838 310.614 447.262C314.016 446.479 317.462 445.903 320.933 445.536Z" fill="#EB996E"/>
<path d="M296.918 393.883L313.993 450.089C314.089 450.402 314.277 450.679 314.533 450.884C314.788 451.089 315.099 451.213 315.425 451.24L361.937 454.728C362.349 454.756 362.736 454.94 363.017 455.242C363.299 455.545 363.456 455.943 363.455 456.356V459.257C363.455 459.474 363.411 459.689 363.327 459.889C363.243 460.089 363.12 460.27 362.965 460.421C362.81 460.573 362.626 460.692 362.424 460.772C362.222 460.851 362.007 460.89 361.79 460.885L234.494 458.437C234.168 458.431 233.852 458.328 233.586 458.14C233.32 457.952 233.116 457.689 233.001 457.384L210.626 398.767C210.532 398.526 210.498 398.266 210.524 398.009C210.551 397.752 210.639 397.505 210.78 397.289C210.921 397.072 211.112 396.892 211.336 396.764C211.56 396.636 211.812 396.563 212.07 396.552L295.192 392.671C295.576 392.638 295.96 392.742 296.276 392.963C296.591 393.185 296.819 393.511 296.918 393.883Z" fill="#455A64"/>
<path d="M261.054 418.094C260.431 418.327 259.874 418.71 259.434 419.209C258.994 419.709 258.685 420.31 258.533 420.958C258.476 421.635 258.6 422.315 258.89 422.93C259.18 423.545 259.627 424.072 260.185 424.459C260.857 424.944 261.657 425.22 262.485 425.25C263.313 425.281 264.131 425.065 264.836 424.63C265.544 424.105 266.051 423.354 266.273 422.501C266.496 421.649 266.421 420.746 266.06 419.942C265.497 418.388 262.658 417.298 261.018 418.094" fill="#E0E0E0"/>
<path d="M281.667 542.575L268.203 520.445L367.102 442.929C373.255 437.882 380.781 434.799 388.706 434.079C394.48 433.555 400.298 434.299 405.754 436.261C411.209 438.223 416.169 441.355 420.286 445.437C424.403 449.519 427.577 454.452 429.586 459.891C431.594 465.329 432.389 471.141 431.913 476.919L430.334 495.83L364.752 516.969L281.667 542.575Z" fill="#263238"/>
<path d="M408.497 490.041C408.497 490.041 408.424 490.126 408.24 490.285L407.432 490.946L404.286 493.468L401.998 495.267C401.165 495.928 400.174 496.491 399.158 497.262L395.878 499.514C395.29 499.906 394.654 500.335 394.078 500.738L392.108 501.962C389.427 503.566 386.526 505.402 383.234 507.066C381.606 507.923 379.941 508.854 378.191 509.723L372.72 512.305C364.557 516.044 356.211 519.369 347.713 522.269C329.647 528.499 312.952 532.979 300.993 536.602C297.994 537.483 295.289 538.315 292.915 539.05C290.54 539.784 288.508 540.408 286.795 540.971L282.976 542.195L281.972 542.501C281.857 542.542 281.738 542.571 281.617 542.587L281.948 542.44L282.927 542.073L286.721 540.714C288.361 540.115 290.393 539.49 292.768 538.682C295.142 537.875 297.823 537.042 300.809 536.136C312.743 532.391 329.427 527.85 347.456 521.632C356.489 518.56 364.898 515.133 372.426 511.742L377.885 509.184C379.647 508.327 381.312 507.409 382.94 506.565C386.232 504.924 389.133 503.113 391.826 501.546L393.797 500.383C394.421 499.992 395.021 499.576 395.608 499.159L399.023 496.944C400.039 496.246 401.031 495.647 401.875 494.998L404.189 493.235L407.408 490.787L408.264 490.175L408.497 490.041Z" fill="#455A64"/>
<path d="M410.897 500.383C410.594 500.606 410.26 500.784 409.905 500.91C409.245 501.204 408.278 501.608 407.066 502.048C403.905 503.213 400.665 504.154 397.372 504.863C394.075 505.567 390.734 506.041 387.372 506.283C386.086 506.369 385.034 506.406 384.312 506.406C383.935 506.433 383.557 506.413 383.186 506.344C384.558 506.098 385.943 505.926 387.335 505.83C389.881 505.549 393.455 505.059 397.237 504.239C401.019 503.419 404.471 502.415 406.919 501.632C408.221 501.144 409.549 500.727 410.897 500.383Z" fill="#455A64"/>
<path d="M363.16 446.65C363.271 446.797 342.108 463.431 315.889 483.798C289.671 504.166 268.325 520.592 268.227 520.445C268.129 520.298 289.28 503.676 315.498 483.296C341.716 462.917 363.062 446.515 363.16 446.65Z" fill="#455A64"/>
<path d="M357.407 528.903C352.67 526.381 347.346 527.874 342.805 529.404C339.781 530.42 336.685 532.036 333.576 531.167C331.36 530.543 329.708 528.719 328.007 527.189C324.574 524.032 320.544 521.595 316.155 520.021C311.766 518.446 307.106 517.766 302.449 518.021C299.79 518.149 297.279 519.282 295.424 521.191C290.76 526.247 294.273 532.807 298.447 537.103C305.883 544.662 315.703 549.418 326.244 550.567C334.922 551.473 346.856 550.274 355.62 546.504C361.042 544.178 363.821 537.777 360.981 532.611C360.18 531.051 358.937 529.761 357.407 528.903Z" fill="#525CEB"/>
<g opacity="0.4">
<path d="M357.407 532.942C352.658 530.42 347.334 531.914 342.793 533.444C339.769 534.46 336.673 536.075 333.564 535.206C331.348 534.582 329.696 532.758 327.994 531.228C324.562 528.072 320.532 525.634 316.143 524.06C311.754 522.485 307.093 521.805 302.437 522.06C299.778 522.189 297.267 523.322 295.412 525.231C294.473 526.232 293.8 527.452 293.453 528.78C294.352 531.931 296.071 534.786 298.435 537.054C305.871 544.613 315.691 549.369 326.232 550.518C334.91 551.424 346.844 550.225 355.608 546.455C357.164 545.793 358.541 544.773 359.628 543.477C360.715 542.182 361.481 540.648 361.863 539.001C361.587 537.736 361.043 536.545 360.268 535.509C359.493 534.472 358.505 533.613 357.37 532.991L357.407 532.942Z" fill="black"/>
</g>
<path d="M361.936 538.952C361.73 537.948 361.335 536.993 360.773 536.136C360.093 535.166 359.233 534.335 358.239 533.688C356.93 532.804 355.435 532.234 353.869 532.024C350.356 531.608 346.268 533.089 341.74 534.313C339.5 534.912 337.052 535.818 334.396 535.537C333.053 535.363 331.761 534.913 330.601 534.215C329.447 533.495 328.357 532.676 327.345 531.767C323.653 528.257 319.219 525.622 314.371 524.056C312.276 523.344 310.115 522.844 307.92 522.562C306.013 522.287 304.075 522.287 302.168 522.562C300.608 522.798 299.106 523.321 297.737 524.105C296.712 524.699 295.783 525.446 294.983 526.32C293.759 527.85 293.306 528.89 293.232 528.841C293.612 527.872 294.141 526.967 294.799 526.161C295.562 525.199 296.481 524.372 297.516 523.713C298.914 522.858 300.465 522.284 302.082 522.024C304.03 521.734 306.009 521.734 307.957 522.024C310.191 522.291 312.392 522.779 314.53 523.48C316.889 524.264 319.168 525.273 321.335 526.491C322.491 527.13 323.599 527.85 324.652 528.646C325.717 529.478 326.709 530.384 327.737 531.265C328.721 532.171 329.782 532.99 330.907 533.713C331.991 534.357 333.194 534.774 334.444 534.937C336.892 535.267 339.341 534.411 341.58 533.823C346.097 532.599 350.246 531.167 353.931 531.644C355.354 531.85 356.719 532.354 357.934 533.124C359.149 533.894 360.187 534.912 360.981 536.112C361.398 536.769 361.696 537.494 361.862 538.254C361.911 538.483 361.936 538.717 361.936 538.952Z" fill="#263238"/>
<path d="M361.936 538.952C361.73 537.948 361.335 536.993 360.773 536.136C360.093 535.166 359.233 534.335 358.239 533.688C356.93 532.804 355.435 532.234 353.869 532.024C350.356 531.608 346.268 533.089 341.74 534.313C339.5 534.912 337.052 535.818 334.396 535.537C333.053 535.363 331.761 534.913 330.601 534.215C329.447 533.495 328.357 532.676 327.345 531.767C323.653 528.257 319.219 525.622 314.371 524.056C312.276 523.344 310.115 522.844 307.92 522.562C306.013 522.287 304.075 522.287 302.168 522.562C300.608 522.798 299.106 523.321 297.737 524.105C296.712 524.699 295.783 525.446 294.983 526.32C293.759 527.85 293.306 528.89 293.232 528.841C293.612 527.872 294.141 526.967 294.799 526.161C295.562 525.199 296.481 524.372 297.516 523.713C298.914 522.858 300.465 522.284 302.082 522.024C304.03 521.734 306.009 521.734 307.957 522.024C310.191 522.291 312.392 522.779 314.53 523.48C316.889 524.264 319.168 525.273 321.335 526.491C322.491 527.13 323.599 527.85 324.652 528.646C325.717 529.478 326.709 530.384 327.737 531.265C328.721 532.171 329.782 532.99 330.907 533.713C331.991 534.357 333.194 534.774 334.444 534.937C336.892 535.267 339.341 534.411 341.58 533.823C346.097 532.599 350.246 531.167 353.931 531.644C355.354 531.85 356.719 532.354 357.934 533.124C359.149 533.894 360.187 534.912 360.981 536.112C361.398 536.769 361.696 537.494 361.862 538.254C361.911 538.483 361.936 538.717 361.936 538.952Z" fill="#263238"/>
<path d="M303.098 537.801C303.845 537.147 304.666 536.585 305.546 536.124C307.578 534.896 309.674 533.776 311.825 532.771C313.976 531.756 316.178 530.854 318.422 530.065C319.335 529.693 320.288 529.426 321.262 529.27C320.408 529.76 319.511 530.17 318.581 530.494C316.904 531.192 314.603 532.171 312.094 533.346C309.585 534.521 307.369 535.671 305.766 536.516C304.922 537.033 304.028 537.463 303.098 537.801Z" fill="#263238"/>
<path d="M304.775 542.55C307.763 540.752 310.857 539.138 314.041 537.715C317.135 536.106 320.323 534.683 323.588 533.456C320.6 535.254 317.506 536.868 314.323 538.291C311.231 539.906 308.042 541.328 304.775 542.55Z" fill="#263238"/>
<path d="M324.36 544.607C324.262 544.753 319.207 541.742 313.075 537.875C306.942 534.007 302.059 530.739 302.059 530.592C302.059 530.445 307.199 533.456 313.344 537.336C319.488 541.216 324.482 544.46 324.36 544.607Z" fill="#263238"/>
<path d="M327.223 539.686C326.358 539.211 325.539 538.658 324.775 538.034C323.294 536.957 321.238 535.476 318.937 533.884C316.636 532.293 314.542 530.886 313.012 529.87C312.14 529.374 311.32 528.791 310.564 528.132C311.496 528.488 312.387 528.943 313.221 529.49C314.812 530.408 316.978 531.767 319.341 533.358C321.703 534.949 323.674 536.504 325.093 537.679C325.884 538.257 326.599 538.931 327.223 539.686Z" fill="#263238"/>
</svg>
